<?xml version="1.0" encoding="utf-8" standalone="no"?>
<!DOCTYPE svg PUBLIC "-//W3C//DTD SVG 1.1//EN"
  "http://www.w3.org/Graphics/SVG/1.1/DTD/svg11.dtd">
<!-- Created with matplotlib (http://matplotlib.org/) -->
<svg height="576pt" version="1.1" viewBox="0 0 1008 576" width="1008pt" xmlns="http://www.w3.org/2000/svg" xmlns:xlink="http://www.w3.org/1999/xlink">
 <defs>
  <style type="text/css">
*{stroke-linecap:butt;stroke-linejoin:round;stroke-miterlimit:100000;}
  </style>
 </defs>
 <g id="figure_1">
  <g id="patch_1">
   <path d="M 0 576 
L 1008 576 
L 1008 0 
L 0 0 
z
" style="fill:#ffffff;"/>
  </g>
  <g id="axes_1">
   <g id="patch_2">
    <path d="M 56.7225 530.64 
L 995.04 530.64 
L 995.04 12.96 
L 56.7225 12.96 
z
" style="fill:#ffffff;"/>
   </g>
   <g id="PathCollection_1">
    <path clip-path="url(#p5069e5f47d)" d="M 306.559227 429.276049 
C 312.082081 429.276049 317.379478 427.081795 321.284726 423.176548 
C 325.189974 419.2713 327.384227 413.973903 327.384227 408.451049 
C 327.384227 402.928194 325.189974 397.630798 321.284726 393.72555 
C 317.379478 389.820302 312.082081 387.626049 306.559227 387.626049 
C 301.036372 387.626049 295.738976 389.820302 291.833728 393.72555 
C 287.92848 397.630798 285.734227 402.928194 285.734227 408.451049 
C 285.734227 413.973903 287.92848 419.2713 291.833728 423.176548 
C 295.738976 427.081795 301.036372 429.276049 306.559227 429.276049 
z
" style="fill:#0000ff;fill-opacity:0.4;stroke:#0000ff;stroke-opacity:0.4;"/>
    <path clip-path="url(#p5069e5f47d)" d="M 679.564605 315.397537 
C 686.194682 315.397537 692.554102 312.76338 697.242274 308.075207 
C 701.930447 303.387034 704.564605 297.027615 704.564605 290.397537 
C 704.564605 283.76746 701.930447 277.408041 697.242274 272.719868 
C 692.554102 268.031695 686.194682 265.397537 679.564605 265.397537 
C 672.934527 265.397537 666.575108 268.031695 661.886935 272.719868 
C 657.198762 277.408041 654.564605 283.76746 654.564605 290.397537 
C 654.564605 297.027615 657.198762 303.387034 661.886935 308.075207 
C 666.575108 312.76338 672.934527 315.397537 679.564605 315.397537 
z
" style="fill:#0000ff;fill-opacity:0.4;stroke:#0000ff;stroke-opacity:0.4;"/>
    <path clip-path="url(#p5069e5f47d)" d="M 278.929199 395.31545 
C 284.452053 395.31545 289.74945 393.121196 293.654698 389.215948 
C 297.559946 385.3107 299.754199 380.013304 299.754199 374.49045 
C 299.754199 368.967595 297.559946 363.670199 293.654698 359.764951 
C 289.74945 355.859703 284.452053 353.66545 278.929199 353.66545 
C 273.406344 353.66545 268.108948 355.859703 264.2037 359.764951 
C 260.298452 363.670199 258.104199 368.967595 258.104199 374.49045 
C 258.104199 380.013304 260.298452 385.3107 264.2037 389.215948 
C 268.108948 393.121196 273.406344 395.31545 278.929199 395.31545 
z
" style="fill:#0000ff;fill-opacity:0.4;stroke:#0000ff;stroke-opacity:0.4;"/>
    <path clip-path="url(#p5069e5f47d)" d="M 320.374241 414.721506 
C 325.897095 414.721506 331.194492 412.527253 335.09974 408.622005 
C 339.004987 404.716757 341.199241 399.419361 341.199241 393.896506 
C 341.199241 388.373652 339.004987 383.076256 335.09974 379.171008 
C 331.194492 375.26576 325.897095 373.071506 320.374241 373.071506 
C 314.851386 373.071506 309.55399 375.26576 305.648742 379.171008 
C 301.743494 383.076256 299.549241 388.373652 299.549241 393.896506 
C 299.549241 399.419361 301.743494 404.716757 305.648742 408.622005 
C 309.55399 412.527253 314.851386 414.721506 320.374241 414.721506 
z
" style="fill:#0000ff;fill-opacity:0.4;stroke:#0000ff;stroke-opacity:0.4;"/>
    <path clip-path="url(#p5069e5f47d)" d="M 334.189255 372.435907 
C 337.504294 372.435907 340.684003 371.118828 343.02809 368.774742 
C 345.372176 366.430656 346.689255 363.250946 346.689255 359.935907 
C 346.689255 356.620868 345.372176 353.441159 343.02809 351.097072 
C 340.684003 348.752986 337.504294 347.435907 334.189255 347.435907 
C 330.874216 347.435907 327.694506 348.752986 325.35042 351.097072 
C 323.006334 353.441159 321.689255 356.620868 321.689255 359.935907 
C 321.689255 363.250946 323.006334 366.430656 325.35042 368.774742 
C 327.694506 371.118828 330.874216 372.435907 334.189255 372.435907 
z
" style="fill:#0000ff;fill-opacity:0.4;stroke:#0000ff;stroke-opacity:0.4;"/>
    <path clip-path="url(#p5069e5f47d)" d="M 541.414465 338.714451 
C 546.937319 338.714451 552.234716 336.520198 556.139964 332.61495 
C 560.045211 328.709702 562.239465 323.412306 562.239465 317.889451 
C 562.239465 312.366597 560.045211 307.0692 556.139964 303.163952 
C 552.234716 299.258704 546.937319 297.064451 541.414465 297.064451 
C 535.89161 297.064451 530.594214 299.258704 526.688966 303.163952 
C 522.783718 307.0692 520.589465 312.366597 520.589465 317.889451 
C 520.589465 323.412306 522.783718 328.709702 526.688966 332.61495 
C 530.594214 336.520198 535.89161 338.714451 541.414465 338.714451 
z
" style="fill:#0000ff;fill-opacity:0.4;stroke:#0000ff;stroke-opacity:0.4;"/>
    <path clip-path="url(#p5069e5f47d)" d="M 555.229479 360.678336 
C 561.859556 360.678336 568.218976 358.044179 572.907148 353.356006 
C 577.595321 348.667833 580.229479 342.308414 580.229479 335.678336 
C 580.229479 329.048259 577.595321 322.68884 572.907148 318.000667 
C 568.218976 313.312494 561.859556 310.678336 555.229479 310.678336 
C 548.599401 310.678336 542.239982 313.312494 537.551809 318.000667 
C 532.863637 322.68884 530.229479 329.048259 530.229479 335.678336 
C 530.229479 342.308414 532.863637 348.667833 537.551809 353.356006 
C 542.239982 358.044179 548.599401 360.678336 555.229479 360.678336 
z
" style="fill:#0000ff;fill-opacity:0.4;stroke:#0000ff;stroke-opacity:0.4;"/>
    <path clip-path="url(#p5069e5f47d)" d="M 638.119563 325.100566 
C 644.74964 325.100566 651.10906 322.466408 655.797232 317.778235 
C 660.485405 313.090063 663.119563 306.730643 663.119563 300.100566 
C 663.119563 293.470488 660.485405 287.111069 655.797232 282.422896 
C 651.10906 277.734724 644.74964 275.100566 638.119563 275.100566 
C 631.489485 275.100566 625.130066 277.734724 620.441893 282.422896 
C 615.753721 287.111069 613.119563 293.470488 613.119563 300.100566 
C 613.119563 306.730643 615.753721 313.090063 620.441893 317.778235 
C 625.130066 322.466408 631.489485 325.100566 638.119563 325.100566 
z
" style="fill:#0000ff;fill-opacity:0.4;stroke:#0000ff;stroke-opacity:0.4;"/>
    <path clip-path="url(#p5069e5f47d)" d="M 762.454689 108.3996 
C 769.084766 108.3996 775.444186 105.765442 780.132358 101.077269 
C 784.820531 96.389097 787.454689 90.029677 787.454689 83.3996 
C 787.454689 76.769522 784.820531 70.410103 780.132358 65.72193 
C 775.444186 61.033757 769.084766 58.3996 762.454689 58.3996 
C 755.824611 58.3996 749.465192 61.033757 744.777019 65.72193 
C 740.088846 70.410103 737.454689 76.769522 737.454689 83.3996 
C 737.454689 90.029677 740.088846 96.389097 744.777019 101.077269 
C 749.465192 105.765442 755.824611 108.3996 762.454689 108.3996 
z
" style="fill:#0000ff;fill-opacity:0.4;stroke:#0000ff;stroke-opacity:0.4;"/>
    <path clip-path="url(#p5069e5f47d)" d="M 790.084717 241.684168 
C 795.607571 241.684168 800.904968 239.489914 804.810215 235.584666 
C 808.715463 231.679419 810.909717 226.382022 810.909717 220.859168 
C 810.909717 215.336313 808.715463 210.038917 804.810215 206.133669 
C 800.904968 202.228421 795.607571 200.034168 790.084717 200.034168 
C 784.561862 200.034168 779.264466 202.228421 775.359218 206.133669 
C 771.45397 210.038917 769.259717 215.336313 769.259717 220.859168 
C 769.259717 226.382022 771.45397 231.679419 775.359218 235.584666 
C 779.264466 239.489914 784.561862 241.684168 790.084717 241.684168 
z
" style="fill:#0000ff;fill-opacity:0.4;stroke:#0000ff;stroke-opacity:0.4;"/>
    <path clip-path="url(#p5069e5f47d)" d="M 928.234857 100.990257 
C 933.757711 100.990257 939.055108 98.796004 942.960355 94.890756 
C 946.865603 90.985508 949.059857 85.688112 949.059857 80.165257 
C 949.059857 74.642402 946.865603 69.345006 942.960355 65.439758 
C 939.055108 61.53451 933.757711 59.340257 928.234857 59.340257 
C 922.712002 59.340257 917.414606 61.53451 913.509358 65.439758 
C 909.60411 69.345006 907.409857 74.642402 907.409857 80.165257 
C 907.409857 85.688112 909.60411 90.985508 913.509358 94.890756 
C 917.414606 98.796004 922.712002 100.990257 928.234857 100.990257 
z
" style="fill:#0000ff;fill-opacity:0.4;stroke:#0000ff;stroke-opacity:0.4;"/>
    <path clip-path="url(#p5069e5f47d)" d="M 113.149031 490.489419 
C 116.46407 490.489419 119.643779 489.17234 121.987866 486.828253 
C 124.331952 484.484167 125.649031 481.304457 125.649031 477.989419 
C 125.649031 474.67438 124.331952 471.49467 121.987866 469.150584 
C 119.643779 466.806497 116.46407 465.489419 113.149031 465.489419 
C 109.833992 465.489419 106.654283 466.806497 104.310196 469.150584 
C 101.96611 471.49467 100.649031 474.67438 100.649031 477.989419 
C 100.649031 481.304457 101.96611 484.484167 104.310196 486.828253 
C 106.654283 489.17234 109.833992 490.489419 113.149031 490.489419 
z
" style="fill:#0000ff;fill-opacity:0.4;stroke:#0000ff;stroke-opacity:0.4;"/>
    <path clip-path="url(#p5069e5f47d)" d="M 126.964045 460.942962 
C 133.594122 460.942962 139.953542 458.308805 144.641714 453.620632 
C 149.329887 448.932459 151.964045 442.57304 151.964045 435.942962 
C 151.964045 429.312885 149.329887 422.953466 144.641714 418.265293 
C 139.953542 413.57712 133.594122 410.942962 126.964045 410.942962 
C 120.333967 410.942962 113.974548 413.57712 109.286375 418.265293 
C 104.598203 422.953466 101.964045 429.312885 101.964045 435.942962 
C 101.964045 442.57304 104.598203 448.932459 109.286375 453.620632 
C 113.974548 458.308805 120.333967 460.942962 126.964045 460.942962 
z
" style="fill:#0000ff;fill-opacity:0.4;stroke:#0000ff;stroke-opacity:0.4;"/>
    <path clip-path="url(#p5069e5f47d)" d="M 140.779059 490.052047 
C 147.409136 490.052047 153.768556 487.41789 158.456728 482.729717 
C 163.144901 478.041544 165.779059 471.682125 165.779059 465.052047 
C 165.779059 458.42197 163.144901 452.062551 158.456728 447.374378 
C 153.768556 442.686205 147.409136 440.052047 140.779059 440.052047 
C 134.148981 440.052047 127.789562 442.686205 123.101389 447.374378 
C 118.413217 452.062551 115.779059 458.42197 115.779059 465.052047 
C 115.779059 471.682125 118.413217 478.041544 123.101389 482.729717 
C 127.789562 487.41789 134.148981 490.052047 140.779059 490.052047 
z
" style="fill:#0000ff;fill-opacity:0.4;stroke:#0000ff;stroke-opacity:0.4;"/>
    <path clip-path="url(#p5069e5f47d)" d="M 154.594073 472.939676 
C 160.116927 472.939676 165.414324 470.745423 169.319572 466.840175 
C 173.22482 462.934927 175.419073 457.637531 175.419073 452.114676 
C 175.419073 446.591822 173.22482 441.294425 169.319572 437.389178 
C 165.414324 433.48393 160.116927 431.289676 154.594073 431.289676 
C 149.071218 431.289676 143.773822 433.48393 139.868574 437.389178 
C 135.963326 441.294425 133.769073 446.591822 133.769073 452.114676 
C 133.769073 457.637531 135.963326 462.934927 139.868574 466.840175 
C 143.773822 470.745423 149.071218 472.939676 154.594073 472.939676 
z
" style="fill:#0000ff;fill-opacity:0.4;stroke:#0000ff;stroke-opacity:0.4;"/>
    <path clip-path="url(#p5069e5f47d)" d="M 154.594073 486.817705 
C 161.22415 486.817705 167.58357 484.183547 172.271742 479.495374 
C 176.959915 474.807201 179.594073 468.447782 179.594073 461.817705 
C 179.594073 455.187627 176.959915 448.828208 172.271742 444.140035 
C 167.58357 439.451862 161.22415 436.817705 154.594073 436.817705 
C 147.963995 436.817705 141.604576 439.451862 136.916403 444.140035 
C 132.228231 448.828208 129.594073 455.187627 129.594073 461.817705 
C 129.594073 468.447782 132.228231 474.807201 136.916403 479.495374 
C 141.604576 484.183547 147.963995 486.817705 154.594073 486.817705 
z
" style="fill:#0000ff;fill-opacity:0.4;stroke:#0000ff;stroke-opacity:0.4;"/>
    <path clip-path="url(#p5069e5f47d)" d="M 168.409087 486.817705 
C 175.039164 486.817705 181.398584 484.183547 186.086756 479.495374 
C 190.774929 474.807201 193.409087 468.447782 193.409087 461.817705 
C 193.409087 455.187627 190.774929 448.828208 186.086756 444.140035 
C 181.398584 439.451862 175.039164 436.817705 168.409087 436.817705 
C 161.779009 436.817705 155.41959 439.451862 150.731417 444.140035 
C 146.043245 448.828208 143.409087 455.187627 143.409087 461.817705 
C 143.409087 468.447782 146.043245 474.807201 150.731417 479.495374 
C 155.41959 484.183547 161.779009 486.817705 168.409087 486.817705 
z
" style="fill:#0000ff;fill-opacity:0.4;stroke:#0000ff;stroke-opacity:0.4;"/>
    <path clip-path="url(#p5069e5f47d)" d="M 541.414465 268.260424 
C 545.836727 268.260424 550.078459 266.503441 553.20547 263.37643 
C 556.332482 260.249418 558.089465 256.007686 558.089465 251.585424 
C 558.089465 247.163162 556.332482 242.92143 553.20547 239.794419 
C 550.078459 236.667407 545.836727 234.910424 541.414465 234.910424 
C 536.992203 234.910424 532.75047 236.667407 529.623459 239.794419 
C 526.496448 242.92143 524.739465 247.163162 524.739465 251.585424 
C 524.739465 256.007686 526.496448 260.249418 529.623459 263.37643 
C 532.75047 266.503441 536.992203 268.260424 541.414465 268.260424 
z
" style="fill:#0000ff;fill-opacity:0.4;stroke:#0000ff;stroke-opacity:0.4;"/>
   </g>
   <g id="PathCollection_2">
    <path clip-path="url(#p5069e5f47d)" d="M 292.744213 422.56822 
C 296.059252 422.56822 299.238961 421.251141 301.583048 418.907055 
C 303.927134 416.562969 305.244213 413.383259 305.244213 410.06822 
C 305.244213 406.753181 303.927134 403.573472 301.583048 401.229385 
C 299.238961 398.885299 296.059252 397.56822 292.744213 397.56822 
C 289.429174 397.56822 286.249464 398.885299 283.905378 401.229385 
C 281.561292 403.573472 280.244213 406.753181 280.244213 410.06822 
C 280.244213 413.383259 281.561292 416.562969 283.905378 418.907055 
C 286.249464 421.251141 289.429174 422.56822 292.744213 422.56822 
z
" style="fill:#008000;fill-opacity:0.4;stroke:#008000;stroke-opacity:0.4;"/>
    <path clip-path="url(#p5069e5f47d)" d="M 306.559227 314.217737 
C 309.874266 314.217737 313.053975 312.900658 315.398062 310.556572 
C 317.742148 308.212486 319.059227 305.032776 319.059227 301.717737 
C 319.059227 298.402698 317.742148 295.222989 315.398062 292.878902 
C 313.053975 290.534816 309.874266 289.217737 306.559227 289.217737 
C 303.244188 289.217737 300.064478 290.534816 297.720392 292.878902 
C 295.376306 295.222989 294.059227 298.402698 294.059227 301.717737 
C 294.059227 305.032776 295.376306 308.212486 297.720392 310.556572 
C 300.064478 312.900658 303.244188 314.217737 306.559227 314.217737 
z
" style="fill:#008000;fill-opacity:0.4;stroke:#008000;stroke-opacity:0.4;"/>
    <path clip-path="url(#p5069e5f47d)" d="M 306.559227 383.516964 
C 307.66645 383.516964 308.728473 383.077059 309.511398 382.294135 
C 310.294323 381.51121 310.734227 380.449187 310.734227 379.341964 
C 310.734227 378.234741 310.294323 377.172718 309.511398 376.389793 
C 308.728473 375.606868 307.66645 375.166964 306.559227 375.166964 
C 305.452004 375.166964 304.389981 375.606868 303.607056 376.389793 
C 302.824131 377.172718 302.384227 378.234741 302.384227 379.341964 
C 302.384227 380.449187 302.824131 381.51121 303.607056 382.294135 
C 304.389981 383.077059 305.452004 383.516964 306.559227 383.516964 
z
" style="fill:#008000;fill-opacity:0.4;stroke:#008000;stroke-opacity:0.4;"/>
    <path clip-path="url(#p5069e5f47d)" d="M 348.004269 298.722537 
C 350.212085 298.722537 352.329771 297.845363 353.890933 296.284201 
C 355.452094 294.72304 356.329269 292.605353 356.329269 290.397537 
C 356.329269 288.189722 355.452094 286.072035 353.890933 284.510874 
C 352.329771 282.949712 350.212085 282.072537 348.004269 282.072537 
C 345.796453 282.072537 343.678766 282.949712 342.117605 284.510874 
C 340.556443 286.072035 339.679269 288.189722 339.679269 290.397537 
C 339.679269 292.605353 340.556443 294.72304 342.117605 296.284201 
C 343.678766 297.845363 345.796453 298.722537 348.004269 298.722537 
z
" style="fill:#008000;fill-opacity:0.4;stroke:#008000;stroke-opacity:0.4;"/>
    <path clip-path="url(#p5069e5f47d)" d="M 486.154409 242.385682 
C 490.576671 242.385682 494.818403 240.628699 497.945414 237.501688 
C 501.072426 234.374676 502.829409 230.132944 502.829409 225.710682 
C 502.829409 221.28842 501.072426 217.046688 497.945414 213.919676 
C 494.818403 210.792665 490.576671 209.035682 486.154409 209.035682 
C 481.732147 209.035682 477.490414 210.792665 474.363403 213.919676 
C 471.236392 217.046688 469.479409 221.28842 469.479409 225.710682 
C 469.479409 230.132944 471.236392 234.374676 474.363403 237.501688 
C 477.490414 240.628699 481.732147 242.385682 486.154409 242.385682 
z
" style="fill:#008000;fill-opacity:0.4;stroke:#008000;stroke-opacity:0.4;"/>
    <path clip-path="url(#p5069e5f47d)" d="M 679.564605 232.921797 
C 686.194682 232.921797 692.554102 230.287639 697.242274 225.599466 
C 701.930447 220.911293 704.564605 214.551874 704.564605 207.921797 
C 704.564605 201.291719 701.930447 194.9323 697.242274 190.244127 
C 692.554102 185.555954 686.194682 182.921797 679.564605 182.921797 
C 672.934527 182.921797 666.575108 185.555954 661.886935 190.244127 
C 657.198762 194.9323 654.564605 201.291719 654.564605 207.921797 
C 654.564605 214.551874 657.198762 220.911293 661.886935 225.599466 
C 666.575108 230.287639 672.934527 232.921797 679.564605 232.921797 
z
" style="fill:#008000;fill-opacity:0.4;stroke:#008000;stroke-opacity:0.4;"/>
    <path clip-path="url(#p5069e5f47d)" d="M 748.639675 170.289484 
C 751.954714 170.289484 755.134423 168.972405 757.47851 166.628318 
C 759.822596 164.284232 761.139675 161.104522 761.139675 157.789484 
C 761.139675 154.474445 759.822596 151.294735 757.47851 148.950649 
C 755.134423 146.606562 751.954714 145.289484 748.639675 145.289484 
C 745.324636 145.289484 742.144926 146.606562 739.80084 148.950649 
C 737.456754 151.294735 736.139675 154.474445 736.139675 157.789484 
C 736.139675 161.104522 737.456754 164.284232 739.80084 166.628318 
C 742.144926 168.972405 745.324636 170.289484 748.639675 170.289484 
z
" style="fill:#008000;fill-opacity:0.4;stroke:#008000;stroke-opacity:0.4;"/>
    <path clip-path="url(#p5069e5f47d)" d="M 278.929199 433.88842 
C 282.244238 433.88842 285.423947 432.571341 287.768034 430.227255 
C 290.11212 427.883168 291.429199 424.703459 291.429199 421.38842 
C 291.429199 418.073381 290.11212 414.893672 287.768034 412.549585 
C 285.423947 410.205499 282.244238 408.88842 278.929199 408.88842 
C 275.61416 408.88842 272.43445 410.205499 270.090364 412.549585 
C 267.746278 414.893672 266.429199 418.073381 266.429199 421.38842 
C 266.429199 424.703459 267.746278 427.883168 270.090364 430.227255 
C 272.43445 432.571341 275.61416 433.88842 278.929199 433.88842 
z
" style="fill:#008000;fill-opacity:0.4;stroke:#008000;stroke-opacity:0.4;"/>
    <path clip-path="url(#p5069e5f47d)" d="M 375.634297 339.151822 
C 377.842113 339.151822 379.959799 338.274648 381.520961 336.713486 
C 383.082122 335.152325 383.959297 333.034638 383.959297 330.826822 
C 383.959297 328.619006 383.082122 326.50132 381.520961 324.940158 
C 379.959799 323.378997 377.842113 322.501822 375.634297 322.501822 
C 373.426481 322.501822 371.308794 323.378997 369.747633 324.940158 
C 368.186471 326.50132 367.309297 328.619006 367.309297 330.826822 
C 367.309297 333.034638 368.186471 335.152325 369.747633 336.713486 
C 371.308794 338.274648 373.426481 339.151822 375.634297 339.151822 
z
" style="fill:#008000;fill-opacity:0.4;stroke:#008000;stroke-opacity:0.4;"/>
    <path clip-path="url(#p5069e5f47d)" d="M 555.229479 236.156139 
C 561.859556 236.156139 568.218976 233.521982 572.907148 228.833809 
C 577.595321 224.145636 580.229479 217.786217 580.229479 211.156139 
C 580.229479 204.526062 577.595321 198.166643 572.907148 193.47847 
C 568.218976 188.790297 561.859556 186.156139 555.229479 186.156139 
C 548.599401 186.156139 542.239982 188.790297 537.551809 193.47847 
C 532.863637 198.166643 530.229479 204.526062 530.229479 211.156139 
C 530.229479 217.786217 532.863637 224.145636 537.551809 228.833809 
C 542.239982 233.521982 548.599401 236.156139 555.229479 236.156139 
z
" style="fill:#008000;fill-opacity:0.4;stroke:#008000;stroke-opacity:0.4;"/>
    <path clip-path="url(#p5069e5f47d)" d="M 638.119563 200.578369 
C 644.74964 200.578369 651.10906 197.944211 655.797232 193.256038 
C 660.485405 188.567866 663.119563 182.208446 663.119563 175.578369 
C 663.119563 168.948291 660.485405 162.588872 655.797232 157.900699 
C 651.10906 153.212527 644.74964 150.578369 638.119563 150.578369 
C 631.489485 150.578369 625.130066 153.212527 620.441893 157.900699 
C 615.753721 162.588872 613.119563 168.948291 613.119563 175.578369 
C 613.119563 182.208446 615.753721 188.567866 620.441893 193.256038 
C 625.130066 197.944211 631.489485 200.578369 638.119563 200.578369 
z
" style="fill:#008000;fill-opacity:0.4;stroke:#008000;stroke-opacity:0.4;"/>
    <path clip-path="url(#p5069e5f47d)" d="M 762.454689 205.429883 
C 769.084766 205.429883 775.444186 202.795725 780.132358 198.107553 
C 784.820531 193.41938 787.454689 187.059961 787.454689 180.429883 
C 787.454689 173.799806 784.820531 167.440386 780.132358 162.752214 
C 775.444186 158.064041 769.084766 155.429883 762.454689 155.429883 
C 755.824611 155.429883 749.465192 158.064041 744.777019 162.752214 
C 740.088846 167.440386 737.454689 173.799806 737.454689 180.429883 
C 737.454689 187.059961 740.088846 193.41938 744.777019 198.107553 
C 749.465192 202.795725 755.824611 205.429883 762.454689 205.429883 
z
" style="fill:#008000;fill-opacity:0.4;stroke:#008000;stroke-opacity:0.4;"/>
    <path clip-path="url(#p5069e5f47d)" d="M 790.084717 202.19554 
C 796.714794 202.19554 803.074214 199.561383 807.762386 194.87321 
C 812.450559 190.185037 815.084717 183.825618 815.084717 177.19554 
C 815.084717 170.565463 812.450559 164.206044 807.762386 159.517871 
C 803.074214 154.829698 796.714794 152.19554 790.084717 152.19554 
C 783.454639 152.19554 777.09522 154.829698 772.407047 159.517871 
C 767.718874 164.206044 765.084717 170.565463 765.084717 177.19554 
C 765.084717 183.825618 767.718874 190.185037 772.407047 194.87321 
C 777.09522 199.561383 783.454639 202.19554 790.084717 202.19554 
z
" style="fill:#008000;fill-opacity:0.4;stroke:#008000;stroke-opacity:0.4;"/>
    <path clip-path="url(#p5069e5f47d)" d="M 928.234857 75.115515 
C 933.757711 75.115515 939.055108 72.921261 942.960355 69.016013 
C 946.865603 65.110766 949.059857 59.813369 949.059857 54.290515 
C 949.059857 48.76766 946.865603 43.470264 942.960355 39.565016 
C 939.055108 35.659768 933.757711 33.465515 928.234857 33.465515 
C 922.712002 33.465515 917.414606 35.659768 913.509358 39.565016 
C 909.60411 43.470264 907.409857 48.76766 907.409857 54.290515 
C 907.409857 59.813369 909.60411 65.110766 913.509358 69.016013 
C 917.414606 72.921261 922.712002 75.115515 928.234857 75.115515 
z
" style="fill:#008000;fill-opacity:0.4;stroke:#008000;stroke-opacity:0.4;"/>
    <path clip-path="url(#p5069e5f47d)" d="M 126.964045 489.11139 
C 132.486899 489.11139 137.784296 486.917137 141.689544 483.011889 
C 145.594792 479.106641 147.789045 473.809245 147.789045 468.28639 
C 147.789045 462.763536 145.594792 457.466139 141.689544 453.560891 
C 137.784296 449.655644 132.486899 447.46139 126.964045 447.46139 
C 121.44119 447.46139 116.143794 449.655644 112.238546 453.560891 
C 108.333298 457.466139 106.139045 462.763536 106.139045 468.28639 
C 106.139045 473.809245 108.333298 479.106641 112.238546 483.011889 
C 116.143794 486.917137 121.44119 489.11139 126.964045 489.11139 
z
" style="fill:#008000;fill-opacity:0.4;stroke:#008000;stroke-opacity:0.4;"/>
    <path clip-path="url(#p5069e5f47d)" d="M 140.779059 485.877047 
C 146.301913 485.877047 151.59931 483.682794 155.504558 479.777546 
C 159.409806 475.872298 161.604059 470.574902 161.604059 465.052047 
C 161.604059 459.529193 159.409806 454.231797 155.504558 450.326549 
C 151.59931 446.421301 146.301913 444.227047 140.779059 444.227047 
C 135.256204 444.227047 129.958808 446.421301 126.05356 450.326549 
C 122.148312 454.231797 119.954059 459.529193 119.954059 465.052047 
C 119.954059 470.574902 122.148312 475.872298 126.05356 479.777546 
C 129.958808 483.682794 135.256204 485.877047 140.779059 485.877047 
z
" style="fill:#008000;fill-opacity:0.4;stroke:#008000;stroke-opacity:0.4;"/>
    <path clip-path="url(#p5069e5f47d)" d="M 154.594073 484.259876 
C 160.116927 484.259876 165.414324 482.065623 169.319572 478.160375 
C 173.22482 474.255127 175.419073 468.957731 175.419073 463.434876 
C 175.419073 457.912021 173.22482 452.614625 169.319572 448.709377 
C 165.414324 444.804129 160.116927 442.609876 154.594073 442.609876 
C 149.071218 442.609876 143.773822 444.804129 139.868574 448.709377 
C 135.963326 452.614625 133.769073 457.912021 133.769073 463.434876 
C 133.769073 468.957731 135.963326 474.255127 139.868574 478.160375 
C 143.773822 482.065623 149.071218 484.259876 154.594073 484.259876 
z
" style="fill:#008000;fill-opacity:0.4;stroke:#008000;stroke-opacity:0.4;"/>
    <path clip-path="url(#p5069e5f47d)" d="M 154.594073 487.494219 
C 160.116927 487.494219 165.414324 485.299965 169.319572 481.394718 
C 173.22482 477.48947 175.419073 472.192073 175.419073 466.669219 
C 175.419073 461.146364 173.22482 455.848968 169.319572 451.94372 
C 165.414324 448.038472 160.116927 445.844219 154.594073 445.844219 
C 149.071218 445.844219 143.773822 448.038472 139.868574 451.94372 
C 135.963326 455.848968 133.769073 461.146364 133.769073 466.669219 
C 133.769073 472.192073 135.963326 477.48947 139.868574 481.394718 
C 143.773822 485.299965 149.071218 487.494219 154.594073 487.494219 
z
" style="fill:#008000;fill-opacity:0.4;stroke:#008000;stroke-opacity:0.4;"/>
    <path clip-path="url(#p5069e5f47d)" d="M 168.409087 486.817705 
C 175.039164 486.817705 181.398584 484.183547 186.086756 479.495374 
C 190.774929 474.807201 193.409087 468.447782 193.409087 461.817705 
C 193.409087 455.187627 190.774929 448.828208 186.086756 444.140035 
C 181.398584 439.451862 175.039164 436.817705 168.409087 436.817705 
C 161.779009 436.817705 155.41959 439.451862 150.731417 444.140035 
C 146.043245 448.828208 143.409087 455.187627 143.409087 461.817705 
C 143.409087 468.447782 146.043245 474.807201 150.731417 479.495374 
C 155.41959 484.183547 161.779009 486.817705 168.409087 486.817705 
z
" style="fill:#008000;fill-opacity:0.4;stroke:#008000;stroke-opacity:0.4;"/>
    <path clip-path="url(#p5069e5f47d)" d="M 541.414465 338.037937 
C 548.044542 338.037937 554.403962 335.403779 559.092134 330.715606 
C 563.780307 326.027434 566.414465 319.668014 566.414465 313.037937 
C 566.414465 306.407859 563.780307 300.04844 559.092134 295.360267 
C 554.403962 290.672095 548.044542 288.037937 541.414465 288.037937 
C 534.784387 288.037937 528.424968 290.672095 523.736795 295.360267 
C 519.048623 300.04844 516.414465 306.407859 516.414465 313.037937 
C 516.414465 319.668014 519.048623 326.027434 523.736795 330.715606 
C 528.424968 335.403779 534.784387 338.037937 541.414465 338.037937 
z
" style="fill:#008000;fill-opacity:0.4;stroke:#008000;stroke-opacity:0.4;"/>
   </g>
   <g id="PathCollection_3">
    <path clip-path="url(#p5069e5f47d)" d="M 292.744213 440.78362 
C 294.885728 440.78362 296.93982 439.932787 298.4541 438.418507 
C 299.96838 436.904227 300.819213 434.850135 300.819213 432.70862 
C 300.819213 430.567105 299.96838 428.513012 298.4541 426.998732 
C 296.93982 425.484453 294.885728 424.63362 292.744213 424.63362 
C 290.602698 424.63362 288.548605 425.484453 287.034326 426.998732 
C 285.520046 428.513012 284.669213 430.567105 284.669213 432.70862 
C 284.669213 434.850135 285.520046 436.904227 287.034326 438.418507 
C 288.548605 439.932787 290.602698 440.78362 292.744213 440.78362 
z
" style="fill:#ff0000;fill-opacity:0.4;stroke:#ff0000;stroke-opacity:0.4;"/>
    <path clip-path="url(#p5069e5f47d)" d="M 306.559227 432.294734 
C 311.167131 432.294734 315.586927 430.463995 318.845207 427.205715 
C 322.103487 423.947435 323.934227 419.527638 323.934227 414.919734 
C 323.934227 410.311831 322.103487 405.892034 318.845207 402.633754 
C 315.586927 399.375474 311.167131 397.544734 306.559227 397.544734 
C 301.951323 397.544734 297.531527 399.375474 294.273247 402.633754 
C 291.014966 405.892034 289.184227 410.311831 289.184227 414.919734 
C 289.184227 419.527638 291.014966 423.947435 294.273247 427.205715 
C 297.531527 430.463995 301.951323 432.294734 306.559227 432.294734 
z
" style="fill:#ff0000;fill-opacity:0.4;stroke:#ff0000;stroke-opacity:0.4;"/>
    <path clip-path="url(#p5069e5f47d)" d="M 306.559227 457.786648 
C 310.636725 457.786648 314.547767 456.166641 317.430994 453.283415 
C 320.31422 450.400188 321.934227 446.489146 321.934227 442.411648 
C 321.934227 438.33415 320.31422 434.423107 317.430994 431.539881 
C 314.547767 428.656655 310.636725 427.036648 306.559227 427.036648 
C 302.481729 427.036648 298.570686 428.656655 295.68746 431.539881 
C 292.804234 434.423107 291.184227 438.33415 291.184227 442.411648 
C 291.184227 446.489146 292.804234 450.400188 295.68746 453.283415 
C 298.570686 456.166641 302.481729 457.786648 306.559227 457.786648 
z
" style="fill:#ff0000;fill-opacity:0.4;stroke:#ff0000;stroke-opacity:0.4;"/>
    <path clip-path="url(#p5069e5f47d)" d="M 320.374241 437.805591 
C 324.299247 437.805591 328.064023 436.24617 330.839421 433.470772 
C 333.61482 430.695373 335.174241 426.930597 335.174241 423.005591 
C 335.174241 419.080585 333.61482 415.315809 330.839421 412.540411 
C 328.064023 409.765013 324.299247 408.205591 320.374241 408.205591 
C 316.449235 408.205591 312.684459 409.765013 309.909061 412.540411 
C 307.133662 415.315809 305.574241 419.080585 305.574241 423.005591 
C 305.574241 426.930597 307.133662 430.695373 309.909061 433.470772 
C 312.684459 436.24617 316.449235 437.805591 320.374241 437.805591 
z
" style="fill:#ff0000;fill-opacity:0.4;stroke:#ff0000;stroke-opacity:0.4;"/>
    <path clip-path="url(#p5069e5f47d)" d="M 348.004269 448.416448 
C 352.598913 448.416448 357.00599 446.590977 360.254894 443.342073 
C 363.503798 440.09317 365.329269 435.686092 365.329269 431.091448 
C 365.329269 426.496805 363.503798 422.089727 360.254894 418.840823 
C 357.00599 415.59192 352.598913 413.766448 348.004269 413.766448 
C 343.409625 413.766448 339.002548 415.59192 335.753644 418.840823 
C 332.50474 422.089727 330.679269 426.496805 330.679269 431.091448 
C 330.679269 435.686092 332.50474 440.09317 335.753644 443.342073 
C 339.002548 446.590977 343.409625 448.416448 348.004269 448.416448 
z
" style="fill:#ff0000;fill-opacity:0.4;stroke:#ff0000;stroke-opacity:0.4;"/>
    <path clip-path="url(#p5069e5f47d)" d="M 361.819283 415.333877 
C 364.073509 415.333877 366.235712 414.438264 367.829691 412.844285 
C 369.423669 411.250306 370.319283 409.088104 370.319283 406.833877 
C 370.319283 404.579651 369.423669 402.417449 367.829691 400.82347 
C 366.235712 399.229491 364.073509 398.333877 361.819283 398.333877 
C 359.565057 398.333877 357.402854 399.229491 355.808875 400.82347 
C 354.214896 402.417449 353.319283 404.579651 353.319283 406.833877 
C 353.319283 409.088104 354.214896 411.250306 355.808875 412.844285 
C 357.402854 414.438264 359.565057 415.333877 361.819283 415.333877 
z
" style="fill:#ff0000;fill-opacity:0.4;stroke:#ff0000;stroke-opacity:0.4;"/>
    <path clip-path="url(#p5069e5f47d)" d="M 361.819283 418.657363 
C 366.241545 418.657363 370.483277 416.90038 373.610288 413.773369 
C 376.7373 410.646358 378.494283 406.404625 378.494283 401.982363 
C 378.494283 397.560102 376.7373 393.318369 373.610288 390.191358 
C 370.483277 387.064346 366.241545 385.307363 361.819283 385.307363 
C 357.397021 385.307363 353.155289 387.064346 350.028277 390.191358 
C 346.901266 393.318369 345.144283 397.560102 345.144283 401.982363 
C 345.144283 406.404625 346.901266 410.646358 350.028277 413.773369 
C 353.155289 416.90038 357.397021 418.657363 361.819283 418.657363 
z
" style="fill:#ff0000;fill-opacity:0.4;stroke:#ff0000;stroke-opacity:0.4;"/>
    <path clip-path="url(#p5069e5f47d)" d="M 375.634297 415.57302 
C 380.096339 415.57302 384.376228 413.800232 387.531368 410.645092 
C 390.686509 407.489952 392.459297 403.210063 392.459297 398.74802 
C 392.459297 394.285978 390.686509 390.006089 387.531368 386.850949 
C 384.376228 383.695809 380.096339 381.92302 375.634297 381.92302 
C 371.172255 381.92302 366.892366 383.695809 363.737225 386.850949 
C 360.582085 390.006089 358.809297 394.285978 358.809297 398.74802 
C 358.809297 403.210063 360.582085 407.489952 363.737225 410.645092 
C 366.892366 413.800232 371.172255 415.57302 375.634297 415.57302 
z
" style="fill:#ff0000;fill-opacity:0.4;stroke:#ff0000;stroke-opacity:0.4;"/>
    <path clip-path="url(#p5069e5f47d)" d="M 389.449311 422.708877 
C 393.65941 422.708877 397.697641 421.036187 400.674631 418.059198 
C 403.651621 415.082208 405.324311 411.043977 405.324311 406.833877 
C 405.324311 402.623778 403.651621 398.585547 400.674631 395.608557 
C 397.697641 392.631568 393.65941 390.958877 389.449311 390.958877 
C 385.239212 390.958877 381.20098 392.631568 378.223991 395.608557 
C 375.247001 398.585547 373.574311 402.623778 373.574311 406.833877 
C 373.574311 411.043977 375.247001 415.082208 378.223991 418.059198 
C 381.20098 421.036187 385.239212 422.708877 389.449311 422.708877 
z
" style="fill:#ff0000;fill-opacity:0.4;stroke:#ff0000;stroke-opacity:0.4;"/>
    <path clip-path="url(#p5069e5f47d)" d="M 458.524381 414.19802 
C 462.621769 414.19802 466.55189 412.570111 469.449181 409.67282 
C 472.346471 406.775529 473.974381 402.845408 473.974381 398.74802 
C 473.974381 394.650633 472.346471 390.720511 469.449181 387.823221 
C 466.55189 384.92593 462.621769 383.29802 458.524381 383.29802 
C 454.426993 383.29802 450.496872 384.92593 447.599581 387.823221 
C 444.70229 390.720511 443.074381 394.650633 443.074381 398.74802 
C 443.074381 402.845408 444.70229 406.775529 447.599581 409.67282 
C 450.496872 412.570111 454.426993 414.19802 458.524381 414.19802 
z
" style="fill:#ff0000;fill-opacity:0.4;stroke:#ff0000;stroke-opacity:0.4;"/>
    <path clip-path="url(#p5069e5f47d)" d="M 472.339395 380.704593 
C 476.131799 380.704593 479.769387 379.197855 482.451022 376.51622 
C 485.132657 373.834585 486.639395 370.196997 486.639395 366.404593 
C 486.639395 362.612188 485.132657 358.974601 482.451022 356.292966 
C 479.769387 353.611331 476.131799 352.104593 472.339395 352.104593 
C 468.546991 352.104593 464.909403 353.611331 462.227768 356.292966 
C 459.546133 358.974601 458.039395 362.612188 458.039395 366.404593 
C 458.039395 370.196997 459.546133 373.834585 462.227768 376.51622 
C 464.909403 379.197855 468.546991 380.704593 472.339395 380.704593 
z
" style="fill:#ff0000;fill-opacity:0.4;stroke:#ff0000;stroke-opacity:0.4;"/>
    <path clip-path="url(#p5069e5f47d)" d="M 486.154409 368.393736 
C 488.82633 368.393736 491.389176 367.33217 493.27851 365.442837 
C 495.167843 363.553503 496.229409 360.990657 496.229409 358.318736 
C 496.229409 355.646815 495.167843 353.083969 493.27851 351.194635 
C 491.389176 349.305301 488.82633 348.243736 486.154409 348.243736 
C 483.482488 348.243736 480.919642 349.305301 479.030308 351.194635 
C 477.140974 353.083969 476.079409 355.646815 476.079409 358.318736 
C 476.079409 360.990657 477.140974 363.553503 479.030308 365.442837 
C 480.919642 367.33217 483.482488 368.393736 486.154409 368.393736 
z
" style="fill:#ff0000;fill-opacity:0.4;stroke:#ff0000;stroke-opacity:0.4;"/>
    <path clip-path="url(#p5069e5f47d)" d="M 513.784437 391.407621 
C 517.842044 391.407621 521.734009 389.795517 524.603171 386.926355 
C 527.472332 384.057193 529.084437 380.165228 529.084437 376.107621 
C 529.084437 372.050014 527.472332 368.158049 524.603171 365.288887 
C 521.734009 362.419726 517.842044 360.807621 513.784437 360.807621 
C 509.726829 360.807621 505.834865 362.419726 502.965703 365.288887 
C 500.096541 368.158049 498.484437 372.050014 498.484437 376.107621 
C 498.484437 380.165228 500.096541 384.057193 502.965703 386.926355 
C 505.834865 389.795517 509.726829 391.407621 513.784437 391.407621 
z
" style="fill:#ff0000;fill-opacity:0.4;stroke:#ff0000;stroke-opacity:0.4;"/>
    <path clip-path="url(#p5069e5f47d)" d="M 679.564605 363.862679 
C 686.181422 363.862679 692.528123 361.23379 697.206919 356.554993 
C 701.885715 351.876197 704.514605 345.529496 704.514605 338.912679 
C 704.514605 332.295862 701.885715 325.949161 697.206919 321.270365 
C 692.528123 316.591569 686.181422 313.962679 679.564605 313.962679 
C 672.947787 313.962679 666.601087 316.591569 661.922291 321.270365 
C 657.243494 325.949161 654.614605 332.295862 654.614605 338.912679 
C 654.614605 345.529496 657.243494 351.876197 661.922291 356.554993 
C 666.601087 361.23379 672.947787 363.862679 679.564605 363.862679 
z
" style="fill:#ff0000;fill-opacity:0.4;stroke:#ff0000;stroke-opacity:0.4;"/>
    <path clip-path="url(#p5069e5f47d)" d="M 721.009647 286.433652 
C 724.67608 286.433652 728.192838 284.976963 730.785398 282.384403 
C 733.377958 279.791844 734.834647 276.275085 734.834647 272.608652 
C 734.834647 268.942219 733.377958 265.42546 730.785398 262.832901 
C 728.192838 260.240341 724.67608 258.783652 721.009647 258.783652 
C 717.343214 258.783652 713.826455 260.240341 711.233896 262.832901 
C 708.641336 265.42546 707.184647 268.942219 707.184647 272.608652 
C 707.184647 276.275085 708.641336 279.791844 711.233896 282.384403 
C 713.826455 284.976963 717.343214 286.433652 721.009647 286.433652 
z
" style="fill:#ff0000;fill-opacity:0.4;stroke:#ff0000;stroke-opacity:0.4;"/>
    <path clip-path="url(#p5069e5f47d)" d="M 803.899731 319.186423 
C 806.816965 319.186423 809.615109 318.027393 811.677905 315.964597 
C 813.740701 313.901801 814.899731 311.103657 814.899731 308.186423 
C 814.899731 305.269189 813.740701 302.471044 811.677905 300.408248 
C 809.615109 298.345452 806.816965 297.186423 803.899731 297.186423 
C 800.982497 297.186423 798.184352 298.345452 796.121556 300.408248 
C 794.05876 302.471044 792.899731 305.269189 792.899731 308.186423 
C 792.899731 311.103657 794.05876 313.901801 796.121556 315.964597 
C 798.184352 318.027393 800.982497 319.186423 803.899731 319.186423 
z
" style="fill:#ff0000;fill-opacity:0.4;stroke:#ff0000;stroke-opacity:0.4;"/>
    <path clip-path="url(#p5069e5f47d)" d="M 278.929199 451.235134 
C 282.555851 451.235134 286.034454 449.79425 288.598884 447.229819 
C 291.163315 444.665389 292.604199 441.186786 292.604199 437.560134 
C 292.604199 433.933481 291.163315 430.454879 288.598884 427.890449 
C 286.034454 425.326018 282.555851 423.885134 278.929199 423.885134 
C 275.302546 423.885134 271.823944 425.326018 269.259514 427.890449 
C 266.695083 430.454879 265.254199 433.933481 265.254199 437.560134 
C 265.254199 441.186786 266.695083 444.665389 269.259514 447.229819 
C 271.823944 449.79425 275.302546 451.235134 278.929199 451.235134 
z
" style="fill:#ff0000;fill-opacity:0.4;stroke:#ff0000;stroke-opacity:0.4;"/>
    <path clip-path="url(#p5069e5f47d)" d="M 320.374241 435.197763 
C 323.178764 435.197763 325.868798 434.083514 327.851895 432.100417 
C 329.834992 430.11732 330.949241 427.427285 330.949241 424.622763 
C 330.949241 421.81824 329.834992 419.128206 327.851895 417.145108 
C 325.868798 415.162011 323.178764 414.047763 320.374241 414.047763 
C 317.569718 414.047763 314.879684 415.162011 312.896587 417.145108 
C 310.91349 419.128206 309.799241 421.81824 309.799241 424.622763 
C 309.799241 427.427285 310.91349 430.11732 312.896587 432.100417 
C 314.879684 434.083514 317.569718 435.197763 320.374241 435.197763 
z
" style="fill:#ff0000;fill-opacity:0.4;stroke:#ff0000;stroke-opacity:0.4;"/>
    <path clip-path="url(#p5069e5f47d)" d="M 334.189255 420.158877 
C 337.723086 420.158877 341.112657 418.754871 343.611453 416.256075 
C 346.110249 413.757279 347.514255 410.367709 347.514255 406.833877 
C 347.514255 403.300046 346.110249 399.910476 343.611453 397.41168 
C 341.112657 394.912883 337.723086 393.508877 334.189255 393.508877 
C 330.655424 393.508877 327.265853 394.912883 324.767057 397.41168 
C 322.268261 399.910476 320.864255 403.300046 320.864255 406.833877 
C 320.864255 410.367709 322.268261 413.757279 324.767057 416.256075 
C 327.265853 418.754871 330.655424 420.158877 334.189255 420.158877 
z
" style="fill:#ff0000;fill-opacity:0.4;stroke:#ff0000;stroke-opacity:0.4;"/>
    <path clip-path="url(#p5069e5f47d)" d="M 375.634297 407.729335 
C 379.731685 407.729335 383.661806 406.101425 386.559097 403.204135 
C 389.456387 400.306844 391.084297 396.376723 391.084297 392.279335 
C 391.084297 388.181947 389.456387 384.251826 386.559097 381.354535 
C 383.661806 378.457244 379.731685 376.829335 375.634297 376.829335 
C 371.536909 376.829335 367.606788 378.457244 364.709497 381.354535 
C 361.812206 384.251826 360.184297 388.181947 360.184297 392.279335 
C 360.184297 396.376723 361.812206 400.306844 364.709497 403.204135 
C 367.606788 406.101425 371.536909 407.729335 375.634297 407.729335 
z
" style="fill:#ff0000;fill-opacity:0.4;stroke:#ff0000;stroke-opacity:0.4;"/>
    <path clip-path="url(#p5069e5f47d)" d="M 389.449311 394.768478 
C 392.253834 394.768478 394.943868 393.654229 396.926965 391.671132 
C 398.910062 389.688035 400.024311 386.998001 400.024311 384.193478 
C 400.024311 381.388955 398.910062 378.698921 396.926965 376.715824 
C 394.943868 374.732727 392.253834 373.618478 389.449311 373.618478 
C 386.644788 373.618478 383.954754 374.732727 381.971657 376.715824 
C 379.98856 378.698921 378.874311 381.388955 378.874311 384.193478 
C 378.874311 386.998001 379.98856 389.688035 381.971657 391.671132 
C 383.954754 393.654229 386.644788 394.768478 389.449311 394.768478 
z
" style="fill:#ff0000;fill-opacity:0.4;stroke:#ff0000;stroke-opacity:0.4;"/>
    <path clip-path="url(#p5069e5f47d)" d="M 417.079339 409.815192 
C 419.585508 409.815192 421.989369 408.81948 423.761498 407.047351 
C 425.533627 405.275222 426.529339 402.871361 426.529339 400.365192 
C 426.529339 397.859023 425.533627 395.455162 423.761498 393.683033 
C 421.989369 391.910903 419.585508 390.915192 417.079339 390.915192 
C 414.57317 390.915192 412.169309 391.910903 410.39718 393.683033 
C 408.62505 395.455162 407.629339 397.859023 407.629339 400.365192 
C 407.629339 402.871361 408.62505 405.275222 410.39718 407.047351 
C 412.169309 408.81948 414.57317 409.815192 417.079339 409.815192 
z
" style="fill:#ff0000;fill-opacity:0.4;stroke:#ff0000;stroke-opacity:0.4;"/>
    <path clip-path="url(#p5069e5f47d)" d="M 444.709367 395.534135 
C 448.574702 395.534135 452.282243 393.998421 455.015448 391.265217 
C 457.748653 388.532012 459.284367 384.82447 459.284367 380.959135 
C 459.284367 377.0938 457.748653 373.386259 455.015448 370.653054 
C 452.282243 367.919849 448.574702 366.384135 444.709367 366.384135 
C 440.844032 366.384135 437.13649 367.919849 434.403286 370.653054 
C 431.670081 373.386259 430.134367 377.0938 430.134367 380.959135 
C 430.134367 384.82447 431.670081 388.532012 434.403286 391.265217 
C 437.13649 393.998421 440.844032 395.534135 444.709367 395.534135 
z
" style="fill:#ff0000;fill-opacity:0.4;stroke:#ff0000;stroke-opacity:0.4;"/>
    <path clip-path="url(#p5069e5f47d)" d="M 458.524381 393.766964 
C 462.349936 393.766964 466.01932 392.247055 468.724396 389.541979 
C 471.429472 386.836903 472.949381 383.167519 472.949381 379.341964 
C 472.949381 375.516409 471.429472 371.847024 468.724396 369.141949 
C 466.01932 366.436873 462.349936 364.916964 458.524381 364.916964 
C 454.698826 364.916964 451.029441 366.436873 448.324366 369.141949 
C 445.61929 371.847024 444.099381 375.516409 444.099381 379.341964 
C 444.099381 383.167519 445.61929 386.836903 448.324366 389.541979 
C 451.029441 392.247055 454.698826 393.766964 458.524381 393.766964 
z
" style="fill:#ff0000;fill-opacity:0.4;stroke:#ff0000;stroke-opacity:0.4;"/>
    <path clip-path="url(#p5069e5f47d)" d="M 472.339395 415.615192 
C 476.383742 415.615192 480.262988 414.008356 483.122773 411.14857 
C 485.982559 408.288785 487.589395 404.409539 487.589395 400.365192 
C 487.589395 396.320845 485.982559 392.441599 483.122773 389.581813 
C 480.262988 386.722028 476.383742 385.115192 472.339395 385.115192 
C 468.295048 385.115192 464.415802 386.722028 461.556016 389.581813 
C 458.696231 392.441599 457.089395 396.320845 457.089395 400.365192 
C 457.089395 404.409539 458.696231 408.288785 461.556016 411.14857 
C 464.415802 414.008356 468.295048 415.615192 472.339395 415.615192 
z
" style="fill:#ff0000;fill-opacity:0.4;stroke:#ff0000;stroke-opacity:0.4;"/>
    <path clip-path="url(#p5069e5f47d)" d="M 541.414465 382.987421 
C 546.241161 382.987421 550.870818 381.069755 554.283808 377.656765 
C 557.696798 374.243775 559.614465 369.614118 559.614465 364.787421 
C 559.614465 359.960725 557.696798 355.331068 554.283808 351.918078 
C 550.870818 348.505088 546.241161 346.587421 541.414465 346.587421 
C 536.587768 346.587421 531.958111 348.505088 528.545121 351.918078 
C 525.132132 355.331068 523.214465 359.960725 523.214465 364.787421 
C 523.214465 369.614118 525.132132 374.243775 528.545121 377.656765 
C 531.958111 381.069755 536.587768 382.987421 541.414465 382.987421 
z
" style="fill:#ff0000;fill-opacity:0.4;stroke:#ff0000;stroke-opacity:0.4;"/>
    <path clip-path="url(#p5069e5f47d)" d="M 555.229479 376.27505 
C 561.707065 376.27505 567.920217 373.701478 572.500562 369.121133 
C 577.080907 364.540789 579.654479 358.327636 579.654479 351.85005 
C 579.654479 345.372465 577.080907 339.159312 572.500562 334.578967 
C 567.920217 329.998622 561.707065 327.42505 555.229479 327.42505 
C 548.751893 327.42505 542.53874 329.998622 537.958396 334.578967 
C 533.378051 339.159312 530.804479 345.372465 530.804479 351.85005 
C 530.804479 358.327636 533.378051 364.540789 537.958396 369.121133 
C 542.53874 373.701478 548.751893 376.27505 555.229479 376.27505 
z
" style="fill:#ff0000;fill-opacity:0.4;stroke:#ff0000;stroke-opacity:0.4;"/>
    <path clip-path="url(#p5069e5f47d)" d="M 569.044493 330.408137 
C 570.648972 330.408137 572.187951 329.77067 573.322489 328.636133 
C 574.457027 327.501595 575.094493 325.962615 575.094493 324.358137 
C 575.094493 322.753658 574.457027 321.214678 573.322489 320.080141 
C 572.187951 318.945603 570.648972 318.308137 569.044493 318.308137 
C 567.440014 318.308137 565.901035 318.945603 564.766497 320.080141 
C 563.631959 321.214678 562.994493 322.753658 562.994493 324.358137 
C 562.994493 325.962615 563.631959 327.501595 564.766497 328.636133 
C 565.901035 329.77067 567.440014 330.408137 569.044493 330.408137 
z
" style="fill:#ff0000;fill-opacity:0.4;stroke:#ff0000;stroke-opacity:0.4;"/>
    <path clip-path="url(#p5069e5f47d)" d="M 624.304549 334.326822 
C 625.23276 334.326822 626.123078 333.95804 626.779423 333.301696 
C 627.435767 332.645352 627.804549 331.755033 627.804549 330.826822 
C 627.804549 329.898611 627.435767 329.008293 626.779423 328.351948 
C 626.123078 327.695604 625.23276 327.326822 624.304549 327.326822 
C 623.376338 327.326822 622.486019 327.695604 621.829675 328.351948 
C 621.173331 329.008293 620.804549 329.898611 620.804549 330.826822 
C 620.804549 331.755033 621.173331 332.645352 621.829675 333.301696 
C 622.486019 333.95804 623.376338 334.326822 624.304549 334.326822 
z
" style="fill:#ff0000;fill-opacity:0.4;stroke:#ff0000;stroke-opacity:0.4;"/>
    <path clip-path="url(#p5069e5f47d)" d="M 638.119563 330.319251 
C 644.418136 330.319251 650.459585 327.816802 654.913349 323.363037 
C 659.367113 318.909273 661.869563 312.867825 661.869563 306.569251 
C 661.869563 300.270678 659.367113 294.229229 654.913349 289.775465 
C 650.459585 285.321701 644.418136 282.819251 638.119563 282.819251 
C 631.820989 282.819251 625.779541 285.321701 621.325777 289.775465 
C 616.872013 294.229229 614.369563 300.270678 614.369563 306.569251 
C 614.369563 312.867825 616.872013 318.909273 621.325777 323.363037 
C 625.779541 327.816802 631.820989 330.319251 638.119563 330.319251 
z
" style="fill:#ff0000;fill-opacity:0.4;stroke:#ff0000;stroke-opacity:0.4;"/>
    <path clip-path="url(#p5069e5f47d)" d="M 721.009647 268.971281 
C 723.476036 268.971281 725.84174 267.991374 727.58574 266.247374 
C 729.32974 264.503374 730.309647 262.13767 730.309647 259.671281 
C 730.309647 257.204892 729.32974 254.839188 727.58574 253.095188 
C 725.84174 251.351188 723.476036 250.371281 721.009647 250.371281 
C 718.543258 250.371281 716.177554 251.351188 714.433554 253.095188 
C 712.689553 254.839188 711.709647 257.204892 711.709647 259.671281 
C 711.709647 262.13767 712.689553 264.503374 714.433554 266.247374 
C 716.177554 267.991374 718.543258 268.971281 721.009647 268.971281 
z
" style="fill:#ff0000;fill-opacity:0.4;stroke:#ff0000;stroke-opacity:0.4;"/>
    <path clip-path="url(#p5069e5f47d)" d="M 762.454689 325.842737 
C 768.852714 325.842737 774.989553 323.300775 779.51364 318.776688 
C 784.037727 314.252602 786.579689 308.115762 786.579689 301.717737 
C 786.579689 295.319712 784.037727 289.182873 779.51364 284.658786 
C 774.989553 280.134699 768.852714 277.592737 762.454689 277.592737 
C 756.056664 277.592737 749.919824 280.134699 745.395738 284.658786 
C 740.871651 289.182873 738.329689 295.319712 738.329689 301.717737 
C 738.329689 308.115762 740.871651 314.252602 745.395738 318.776688 
C 749.919824 323.300775 756.056664 325.842737 762.454689 325.842737 
z
" style="fill:#ff0000;fill-opacity:0.4;stroke:#ff0000;stroke-opacity:0.4;"/>
    <path clip-path="url(#p5069e5f47d)" d="M 790.084717 325.467737 
C 796.38329 325.467737 802.424739 322.965287 806.878503 318.511523 
C 811.332267 314.057759 813.834717 308.016311 813.834717 301.717737 
C 813.834717 295.419164 811.332267 289.377715 806.878503 284.923951 
C 802.424739 280.470187 796.38329 277.967737 790.084717 277.967737 
C 783.786143 277.967737 777.744695 280.470187 773.290931 284.923951 
C 768.837167 289.377715 766.334717 295.419164 766.334717 301.717737 
C 766.334717 308.016311 768.837167 314.057759 773.290931 318.511523 
C 777.744695 322.965287 783.786143 325.467737 790.084717 325.467737 
z
" style="fill:#ff0000;fill-opacity:0.4;stroke:#ff0000;stroke-opacity:0.4;"/>
    <path clip-path="url(#p5069e5f47d)" d="M 928.234857 191.684683 
C 934.221817 191.684683 939.964372 189.306039 944.197792 185.072619 
C 948.431212 180.839199 950.809857 175.096643 950.809857 169.109683 
C 950.809857 163.122723 948.431212 157.380168 944.197792 153.146748 
C 939.964372 148.913328 934.221817 146.534683 928.234857 146.534683 
C 922.247897 146.534683 916.505341 148.913328 912.271921 153.146748 
C 908.038501 157.380168 905.659857 163.122723 905.659857 169.109683 
C 905.659857 175.096643 908.038501 180.839199 912.271921 185.072619 
C 916.505341 189.306039 922.247897 191.684683 928.234857 191.684683 
z
" style="fill:#ff0000;fill-opacity:0.4;stroke:#ff0000;stroke-opacity:0.4;"/>
    <path clip-path="url(#p5069e5f47d)" d="M 113.149031 492.48159 
C 116.563521 492.48159 119.838622 491.124999 122.253031 488.71059 
C 124.66744 486.296181 126.024031 483.02108 126.024031 479.60659 
C 126.024031 476.1921 124.66744 472.916999 122.253031 470.50259 
C 119.838622 468.088181 116.563521 466.73159 113.149031 466.73159 
C 109.734541 466.73159 106.45944 468.088181 104.045031 470.50259 
C 101.630622 472.916999 100.274031 476.1921 100.274031 479.60659 
C 100.274031 483.02108 101.630622 486.296181 104.045031 488.71059 
C 106.45944 491.124999 109.734541 492.48159 113.149031 492.48159 
z
" style="fill:#ff0000;fill-opacity:0.4;stroke:#ff0000;stroke-opacity:0.4;"/>
    <path clip-path="url(#p5069e5f47d)" d="M 126.964045 507.908104 
C 133.183058 507.908104 139.148193 505.437264 143.545699 501.039758 
C 147.943205 496.642252 150.414045 490.677117 150.414045 484.458104 
C 150.414045 478.239091 147.943205 472.273956 143.545699 467.87645 
C 139.148193 463.478944 133.183058 461.008104 126.964045 461.008104 
C 120.745032 461.008104 114.779897 463.478944 110.382391 467.87645 
C 105.984885 472.273956 103.514045 478.239091 103.514045 484.458104 
C 103.514045 490.677117 105.984885 496.642252 110.382391 501.039758 
C 114.779897 505.437264 120.745032 507.908104 126.964045 507.908104 
z
" style="fill:#ff0000;fill-opacity:0.4;stroke:#ff0000;stroke-opacity:0.4;"/>
    <path clip-path="url(#p5069e5f47d)" d="M 140.779059 503.700275 
C 145.453264 503.700275 149.936654 501.843194 153.241816 498.538032 
C 156.546978 495.232871 158.404059 490.74948 158.404059 486.075275 
C 158.404059 481.401071 156.546978 476.91768 153.241816 473.612518 
C 149.936654 470.307357 145.453264 468.450275 140.779059 468.450275 
C 136.104854 468.450275 131.621464 470.307357 128.316302 473.612518 
C 125.01114 476.91768 123.154059 481.401071 123.154059 486.075275 
C 123.154059 490.74948 125.01114 495.232871 128.316302 498.538032 
C 131.621464 501.843194 136.104854 503.700275 140.779059 503.700275 
z
" style="fill:#ff0000;fill-opacity:0.4;stroke:#ff0000;stroke-opacity:0.4;"/>
    <path clip-path="url(#p5069e5f47d)" d="M 154.594073 495.564419 
C 159.255017 495.564419 163.725689 493.712606 167.021475 490.41682 
C 170.31726 487.121035 172.169073 482.650363 172.169073 477.989419 
C 172.169073 473.328474 170.31726 468.857802 167.021475 465.562017 
C 163.725689 462.266231 159.255017 460.414419 154.594073 460.414419 
C 149.933128 460.414419 145.462457 462.266231 142.166671 465.562017 
C 138.870886 468.857802 137.019073 473.328474 137.019073 477.989419 
C 137.019073 482.650363 138.870886 487.121035 142.166671 490.41682 
C 145.462457 493.712606 149.933128 495.564419 154.594073 495.564419 
z
" style="fill:#ff0000;fill-opacity:0.4;stroke:#ff0000;stroke-opacity:0.4;"/>
    <path clip-path="url(#p5069e5f47d)" d="M 154.594073 507.840933 
C 161.22415 507.840933 167.58357 505.206775 172.271742 500.518602 
C 176.959915 495.830429 179.594073 489.47101 179.594073 482.840933 
C 179.594073 476.210855 176.959915 469.851436 172.271742 465.163263 
C 167.58357 460.47509 161.22415 457.840933 154.594073 457.840933 
C 147.963995 457.840933 141.604576 460.47509 136.916403 465.163263 
C 132.228231 469.851436 129.594073 476.210855 129.594073 482.840933 
C 129.594073 489.47101 132.228231 495.830429 136.916403 500.518602 
C 141.604576 505.206775 147.963995 507.840933 154.594073 507.840933 
z
" style="fill:#ff0000;fill-opacity:0.4;stroke:#ff0000;stroke-opacity:0.4;"/>
    <path clip-path="url(#p5069e5f47d)" d="M 168.409087 506.223761 
C 175.039164 506.223761 181.398584 503.589604 186.086756 498.901431 
C 190.774929 494.213258 193.409087 487.853839 193.409087 481.223761 
C 193.409087 474.593684 190.774929 468.234265 186.086756 463.546092 
C 181.398584 458.857919 175.039164 456.223761 168.409087 456.223761 
C 161.779009 456.223761 155.41959 458.857919 150.731417 463.546092 
C 146.043245 468.234265 143.409087 474.593684 143.409087 481.223761 
C 143.409087 487.853839 146.043245 494.213258 150.731417 498.901431 
C 155.41959 503.589604 161.779009 506.223761 168.409087 506.223761 
z
" style="fill:#ff0000;fill-opacity:0.4;stroke:#ff0000;stroke-opacity:0.4;"/>
    <path clip-path="url(#p5069e5f47d)" d="M 403.264325 433.979077 
C 407.461164 433.979077 411.486676 432.311655 414.45429 429.344042 
C 417.421903 426.376429 419.089325 422.350916 419.089325 418.154077 
C 419.089325 413.957238 417.421903 409.931726 414.45429 406.964112 
C 411.486676 403.996499 407.461164 402.329077 403.264325 402.329077 
C 399.067486 402.329077 395.041973 403.996499 392.07436 406.964112 
C 389.106747 409.931726 387.439325 413.957238 387.439325 418.154077 
C 387.439325 422.350916 389.106747 426.376429 392.07436 429.344042 
C 395.041973 432.311655 399.067486 433.979077 403.264325 433.979077 
z
" style="fill:#ff0000;fill-opacity:0.4;stroke:#ff0000;stroke-opacity:0.4;"/>
    <path clip-path="url(#p5069e5f47d)" d="M 472.339395 394.643478 
C 475.110767 394.643478 477.769004 393.5424 479.728661 391.582744 
C 481.688317 389.623088 482.789395 386.96485 482.789395 384.193478 
C 482.789395 381.422106 481.688317 378.763868 479.728661 376.804212 
C 477.769004 374.844556 475.110767 373.743478 472.339395 373.743478 
C 469.568022 373.743478 466.909785 374.844556 464.950129 376.804212 
C 462.990473 378.763868 461.889395 381.422106 461.889395 384.193478 
C 461.889395 386.96485 462.990473 389.623088 464.950129 391.582744 
C 466.909785 393.5424 469.568022 394.643478 472.339395 394.643478 
z
" style="fill:#ff0000;fill-opacity:0.4;stroke:#ff0000;stroke-opacity:0.4;"/>
    <path clip-path="url(#p5069e5f47d)" d="M 541.414465 365.128079 
C 542.362566 365.128079 543.271963 364.751394 543.942372 364.080985 
C 544.61278 363.410577 544.989465 362.50118 544.989465 361.553079 
C 544.989465 360.604977 544.61278 359.695581 543.942372 359.025172 
C 543.271963 358.354763 542.362566 357.978079 541.414465 357.978079 
C 540.466364 357.978079 539.556967 358.354763 538.886558 359.025172 
C 538.216149 359.695581 537.839465 360.604977 537.839465 361.553079 
C 537.839465 362.50118 538.216149 363.410577 538.886558 364.080985 
C 539.556967 364.751394 540.466364 365.128079 541.414465 365.128079 
z
" style="fill:#ff0000;fill-opacity:0.4;stroke:#ff0000;stroke-opacity:0.4;"/>
    <path clip-path="url(#p5069e5f47d)" d="M 541.414465 388.454593 
C 547.262193 388.454593 552.871201 386.131266 557.006169 381.996297 
C 561.141138 377.861329 563.464465 372.252321 563.464465 366.404593 
C 563.464465 360.556864 561.141138 354.947857 557.006169 350.812888 
C 552.871201 346.67792 547.262193 344.354593 541.414465 344.354593 
C 535.566736 344.354593 529.957729 346.67792 525.82276 350.812888 
C 521.687792 354.947857 519.364465 360.556864 519.364465 366.404593 
C 519.364465 372.252321 521.687792 377.861329 525.82276 381.996297 
C 529.957729 386.131266 535.566736 388.454593 541.414465 388.454593 
z
" style="fill:#ff0000;fill-opacity:0.4;stroke:#ff0000;stroke-opacity:0.4;"/>
   </g>
   <g id="patch_3">
    <path d="M 56.7225 530.64 
L 995.04 530.64 
" style="fill:none;stroke:#000000;stroke-linecap:square;stroke-linejoin:miter;"/>
   </g>
   <g id="patch_4">
    <path d="M 56.7225 12.96 
L 995.04 12.96 
" style="fill:none;stroke:#000000;stroke-linecap:square;stroke-linejoin:miter;"/>
   </g>
   <g id="patch_5">
    <path d="M 995.04 530.64 
L 995.04 12.96 
" style="fill:none;stroke:#000000;stroke-linecap:square;stroke-linejoin:miter;"/>
   </g>
   <g id="patch_6">
    <path d="M 56.7225 530.64 
L 56.7225 12.96 
" style="fill:none;stroke:#000000;stroke-linecap:square;stroke-linejoin:miter;"/>
   </g>
   <g id="matplotlib.axis_1">
    <g id="xtick_1">
     <g id="line2d_1">
      <defs>
       <path d="M 0 0 
L 0 -4 
" id="mb623a66040" style="stroke:#000000;stroke-width:0.5;"/>
      </defs>
      <g>
       <use style="stroke:#000000;stroke-width:0.5;" x="126.964044919" xlink:href="#mb623a66040" y="530.64"/>
      </g>
     </g>
     <g id="line2d_2">
      <defs>
       <path d="M 0 0 
L 0 4 
" id="md6008d2bdb" style="stroke:#000000;stroke-width:0.5;"/>
      </defs>
      <g>
       <use style="stroke:#000000;stroke-width:0.5;" x="126.964044919" xlink:href="#md6008d2bdb" y="12.96"/>
      </g>
     </g>
     <g id="text_1">
      <!-- 20 -->
      <defs>
       <path d="M 31.78125 66.40625 
Q 24.171875 66.40625 20.328125 58.90625 
Q 16.5 51.421875 16.5 36.375 
Q 16.5 21.390625 20.328125 13.890625 
Q 24.171875 6.390625 31.78125 6.390625 
Q 39.453125 6.390625 43.28125 13.890625 
Q 47.125 21.390625 47.125 36.375 
Q 47.125 51.421875 43.28125 58.90625 
Q 39.453125 66.40625 31.78125 66.40625 
M 31.78125 74.21875 
Q 44.046875 74.21875 50.515625 64.515625 
Q 56.984375 54.828125 56.984375 36.375 
Q 56.984375 17.96875 50.515625 8.265625 
Q 44.046875 -1.421875 31.78125 -1.421875 
Q 19.53125 -1.421875 13.0625 8.265625 
Q 6.59375 17.96875 6.59375 36.375 
Q 6.59375 54.828125 13.0625 64.515625 
Q 19.53125 74.21875 31.78125 74.21875 
" id="BitstreamVeraSans-Roman-30"/>
       <path d="M 19.1875 8.296875 
L 53.609375 8.296875 
L 53.609375 0 
L 7.328125 0 
L 7.328125 8.296875 
Q 12.9375 14.109375 22.625 23.890625 
Q 32.328125 33.6875 34.8125 36.53125 
Q 39.546875 41.84375 41.421875 45.53125 
Q 43.3125 49.21875 43.3125 52.78125 
Q 43.3125 58.59375 39.234375 62.25 
Q 35.15625 65.921875 28.609375 65.921875 
Q 23.96875 65.921875 18.8125 64.3125 
Q 13.671875 62.703125 7.8125 59.421875 
L 7.8125 69.390625 
Q 13.765625 71.78125 18.9375 73 
Q 24.125 74.21875 28.421875 74.21875 
Q 39.75 74.21875 46.484375 68.546875 
Q 53.21875 62.890625 53.21875 53.421875 
Q 53.21875 48.921875 51.53125 44.890625 
Q 49.859375 40.875 45.40625 35.40625 
Q 44.1875 33.984375 37.640625 27.21875 
Q 31.109375 20.453125 19.1875 8.296875 
" id="BitstreamVeraSans-Roman-32"/>
      </defs>
      <g transform="translate(119.329044919 543.758125)scale(0.12 -0.12)">
       <use xlink:href="#BitstreamVeraSans-Roman-32"/>
       <use x="63.623046875" xlink:href="#BitstreamVeraSans-Roman-30"/>
      </g>
     </g>
    </g>
    <g id="xtick_2">
     <g id="line2d_3">
      <g>
       <use style="stroke:#000000;stroke-width:0.5;" x="265.114184886" xlink:href="#mb623a66040" y="530.64"/>
      </g>
     </g>
     <g id="line2d_4">
      <g>
       <use style="stroke:#000000;stroke-width:0.5;" x="265.114184886" xlink:href="#md6008d2bdb" y="12.96"/>
      </g>
     </g>
     <g id="text_2">
      <!-- 30 -->
      <defs>
       <path d="M 40.578125 39.3125 
Q 47.65625 37.796875 51.625 33 
Q 55.609375 28.21875 55.609375 21.1875 
Q 55.609375 10.40625 48.1875 4.484375 
Q 40.765625 -1.421875 27.09375 -1.421875 
Q 22.515625 -1.421875 17.65625 -0.515625 
Q 12.796875 0.390625 7.625 2.203125 
L 7.625 11.71875 
Q 11.71875 9.328125 16.59375 8.109375 
Q 21.484375 6.890625 26.8125 6.890625 
Q 36.078125 6.890625 40.9375 10.546875 
Q 45.796875 14.203125 45.796875 21.1875 
Q 45.796875 27.640625 41.28125 31.265625 
Q 36.765625 34.90625 28.71875 34.90625 
L 20.21875 34.90625 
L 20.21875 43.015625 
L 29.109375 43.015625 
Q 36.375 43.015625 40.234375 45.921875 
Q 44.09375 48.828125 44.09375 54.296875 
Q 44.09375 59.90625 40.109375 62.90625 
Q 36.140625 65.921875 28.71875 65.921875 
Q 24.65625 65.921875 20.015625 65.03125 
Q 15.375 64.15625 9.8125 62.3125 
L 9.8125 71.09375 
Q 15.4375 72.65625 20.34375 73.4375 
Q 25.25 74.21875 29.59375 74.21875 
Q 40.828125 74.21875 47.359375 69.109375 
Q 53.90625 64.015625 53.90625 55.328125 
Q 53.90625 49.265625 50.4375 45.09375 
Q 46.96875 40.921875 40.578125 39.3125 
" id="BitstreamVeraSans-Roman-33"/>
      </defs>
      <g transform="translate(257.479184886 543.758125)scale(0.12 -0.12)">
       <use xlink:href="#BitstreamVeraSans-Roman-33"/>
       <use x="63.623046875" xlink:href="#BitstreamVeraSans-Roman-30"/>
      </g>
     </g>
    </g>
    <g id="xtick_3">
     <g id="line2d_5">
      <g>
       <use style="stroke:#000000;stroke-width:0.5;" x="403.264324852" xlink:href="#mb623a66040" y="530.64"/>
      </g>
     </g>
     <g id="line2d_6">
      <g>
       <use style="stroke:#000000;stroke-width:0.5;" x="403.264324852" xlink:href="#md6008d2bdb" y="12.96"/>
      </g>
     </g>
     <g id="text_3">
      <!-- 40 -->
      <defs>
       <path d="M 37.796875 64.3125 
L 12.890625 25.390625 
L 37.796875 25.390625 
z
M 35.203125 72.90625 
L 47.609375 72.90625 
L 47.609375 25.390625 
L 58.015625 25.390625 
L 58.015625 17.1875 
L 47.609375 17.1875 
L 47.609375 0 
L 37.796875 0 
L 37.796875 17.1875 
L 4.890625 17.1875 
L 4.890625 26.703125 
z
" id="BitstreamVeraSans-Roman-34"/>
      </defs>
      <g transform="translate(395.629324852 543.758125)scale(0.12 -0.12)">
       <use xlink:href="#BitstreamVeraSans-Roman-34"/>
       <use x="63.623046875" xlink:href="#BitstreamVeraSans-Roman-30"/>
      </g>
     </g>
    </g>
    <g id="xtick_4">
     <g id="line2d_7">
      <g>
       <use style="stroke:#000000;stroke-width:0.5;" x="541.414464819" xlink:href="#mb623a66040" y="530.64"/>
      </g>
     </g>
     <g id="line2d_8">
      <g>
       <use style="stroke:#000000;stroke-width:0.5;" x="541.414464819" xlink:href="#md6008d2bdb" y="12.96"/>
      </g>
     </g>
     <g id="text_4">
      <!-- 50 -->
      <defs>
       <path d="M 10.796875 72.90625 
L 49.515625 72.90625 
L 49.515625 64.59375 
L 19.828125 64.59375 
L 19.828125 46.734375 
Q 21.96875 47.46875 24.109375 47.828125 
Q 26.265625 48.1875 28.421875 48.1875 
Q 40.625 48.1875 47.75 41.5 
Q 54.890625 34.8125 54.890625 23.390625 
Q 54.890625 11.625 47.5625 5.09375 
Q 40.234375 -1.421875 26.90625 -1.421875 
Q 22.3125 -1.421875 17.546875 -0.640625 
Q 12.796875 0.140625 7.71875 1.703125 
L 7.71875 11.625 
Q 12.109375 9.234375 16.796875 8.0625 
Q 21.484375 6.890625 26.703125 6.890625 
Q 35.15625 6.890625 40.078125 11.328125 
Q 45.015625 15.765625 45.015625 23.390625 
Q 45.015625 31 40.078125 35.4375 
Q 35.15625 39.890625 26.703125 39.890625 
Q 22.75 39.890625 18.8125 39.015625 
Q 14.890625 38.140625 10.796875 36.28125 
z
" id="BitstreamVeraSans-Roman-35"/>
      </defs>
      <g transform="translate(533.779464819 543.758125)scale(0.12 -0.12)">
       <use xlink:href="#BitstreamVeraSans-Roman-35"/>
       <use x="63.623046875" xlink:href="#BitstreamVeraSans-Roman-30"/>
      </g>
     </g>
    </g>
    <g id="xtick_5">
     <g id="line2d_9">
      <g>
       <use style="stroke:#000000;stroke-width:0.5;" x="679.564604785" xlink:href="#mb623a66040" y="530.64"/>
      </g>
     </g>
     <g id="line2d_10">
      <g>
       <use style="stroke:#000000;stroke-width:0.5;" x="679.564604785" xlink:href="#md6008d2bdb" y="12.96"/>
      </g>
     </g>
     <g id="text_5">
      <!-- 60 -->
      <defs>
       <path d="M 33.015625 40.375 
Q 26.375 40.375 22.484375 35.828125 
Q 18.609375 31.296875 18.609375 23.390625 
Q 18.609375 15.53125 22.484375 10.953125 
Q 26.375 6.390625 33.015625 6.390625 
Q 39.65625 6.390625 43.53125 10.953125 
Q 47.40625 15.53125 47.40625 23.390625 
Q 47.40625 31.296875 43.53125 35.828125 
Q 39.65625 40.375 33.015625 40.375 
M 52.59375 71.296875 
L 52.59375 62.3125 
Q 48.875 64.0625 45.09375 64.984375 
Q 41.3125 65.921875 37.59375 65.921875 
Q 27.828125 65.921875 22.671875 59.328125 
Q 17.53125 52.734375 16.796875 39.40625 
Q 19.671875 43.65625 24.015625 45.921875 
Q 28.375 48.1875 33.59375 48.1875 
Q 44.578125 48.1875 50.953125 41.515625 
Q 57.328125 34.859375 57.328125 23.390625 
Q 57.328125 12.15625 50.6875 5.359375 
Q 44.046875 -1.421875 33.015625 -1.421875 
Q 20.359375 -1.421875 13.671875 8.265625 
Q 6.984375 17.96875 6.984375 36.375 
Q 6.984375 53.65625 15.1875 63.9375 
Q 23.390625 74.21875 37.203125 74.21875 
Q 40.921875 74.21875 44.703125 73.484375 
Q 48.484375 72.75 52.59375 71.296875 
" id="BitstreamVeraSans-Roman-36"/>
      </defs>
      <g transform="translate(671.929604785 543.758125)scale(0.12 -0.12)">
       <use xlink:href="#BitstreamVeraSans-Roman-36"/>
       <use x="63.623046875" xlink:href="#BitstreamVeraSans-Roman-30"/>
      </g>
     </g>
    </g>
    <g id="xtick_6">
     <g id="line2d_11">
      <g>
       <use style="stroke:#000000;stroke-width:0.5;" x="817.714744752" xlink:href="#mb623a66040" y="530.64"/>
      </g>
     </g>
     <g id="line2d_12">
      <g>
       <use style="stroke:#000000;stroke-width:0.5;" x="817.714744752" xlink:href="#md6008d2bdb" y="12.96"/>
      </g>
     </g>
     <g id="text_6">
      <!-- 70 -->
      <defs>
       <path d="M 8.203125 72.90625 
L 55.078125 72.90625 
L 55.078125 68.703125 
L 28.609375 0 
L 18.3125 0 
L 43.21875 64.59375 
L 8.203125 64.59375 
z
" id="BitstreamVeraSans-Roman-37"/>
      </defs>
      <g transform="translate(810.079744752 543.758125)scale(0.12 -0.12)">
       <use xlink:href="#BitstreamVeraSans-Roman-37"/>
       <use x="63.623046875" xlink:href="#BitstreamVeraSans-Roman-30"/>
      </g>
     </g>
    </g>
    <g id="xtick_7">
     <g id="line2d_13">
      <g>
       <use style="stroke:#000000;stroke-width:0.5;" x="955.864884719" xlink:href="#mb623a66040" y="530.64"/>
      </g>
     </g>
     <g id="line2d_14">
      <g>
       <use style="stroke:#000000;stroke-width:0.5;" x="955.864884719" xlink:href="#md6008d2bdb" y="12.96"/>
      </g>
     </g>
     <g id="text_7">
      <!-- 80 -->
      <defs>
       <path d="M 31.78125 34.625 
Q 24.75 34.625 20.71875 30.859375 
Q 16.703125 27.09375 16.703125 20.515625 
Q 16.703125 13.921875 20.71875 10.15625 
Q 24.75 6.390625 31.78125 6.390625 
Q 38.8125 6.390625 42.859375 10.171875 
Q 46.921875 13.96875 46.921875 20.515625 
Q 46.921875 27.09375 42.890625 30.859375 
Q 38.875 34.625 31.78125 34.625 
M 21.921875 38.8125 
Q 15.578125 40.375 12.03125 44.71875 
Q 8.5 49.078125 8.5 55.328125 
Q 8.5 64.0625 14.71875 69.140625 
Q 20.953125 74.21875 31.78125 74.21875 
Q 42.671875 74.21875 48.875 69.140625 
Q 55.078125 64.0625 55.078125 55.328125 
Q 55.078125 49.078125 51.53125 44.71875 
Q 48 40.375 41.703125 38.8125 
Q 48.828125 37.15625 52.796875 32.3125 
Q 56.78125 27.484375 56.78125 20.515625 
Q 56.78125 9.90625 50.3125 4.234375 
Q 43.84375 -1.421875 31.78125 -1.421875 
Q 19.734375 -1.421875 13.25 4.234375 
Q 6.78125 9.90625 6.78125 20.515625 
Q 6.78125 27.484375 10.78125 32.3125 
Q 14.796875 37.15625 21.921875 38.8125 
M 18.3125 54.390625 
Q 18.3125 48.734375 21.84375 45.5625 
Q 25.390625 42.390625 31.78125 42.390625 
Q 38.140625 42.390625 41.71875 45.5625 
Q 45.3125 48.734375 45.3125 54.390625 
Q 45.3125 60.0625 41.71875 63.234375 
Q 38.140625 66.40625 31.78125 66.40625 
Q 25.390625 66.40625 21.84375 63.234375 
Q 18.3125 60.0625 18.3125 54.390625 
" id="BitstreamVeraSans-Roman-38"/>
      </defs>
      <g transform="translate(948.229884719 543.758125)scale(0.12 -0.12)">
       <use xlink:href="#BitstreamVeraSans-Roman-38"/>
       <use x="63.623046875" xlink:href="#BitstreamVeraSans-Roman-30"/>
      </g>
     </g>
    </g>
    <g id="text_8">
     <!-- Nmero de Vrtices -->
     <defs>
      <path d="M 8.5 21.578125 
L 8.5 54.6875 
L 17.484375 54.6875 
L 17.484375 21.921875 
Q 17.484375 14.15625 20.5 10.265625 
Q 23.53125 6.390625 29.59375 6.390625 
Q 36.859375 6.390625 41.078125 11.03125 
Q 45.3125 15.671875 45.3125 23.6875 
L 45.3125 54.6875 
L 54.296875 54.6875 
L 54.296875 0 
L 45.3125 0 
L 45.3125 8.40625 
Q 42.046875 3.421875 37.71875 1 
Q 33.40625 -1.421875 27.6875 -1.421875 
Q 18.265625 -1.421875 13.375 4.4375 
Q 8.5 10.296875 8.5 21.578125 
M 37.78125 79.984375 
L 47.5 79.984375 
L 31.59375 61.625 
L 24.109375 61.625 
z
" id="BitstreamVeraSans-Roman-fa"/>
      <path d="M 56.203125 29.59375 
L 56.203125 25.203125 
L 14.890625 25.203125 
Q 15.484375 15.921875 20.484375 11.0625 
Q 25.484375 6.203125 34.421875 6.203125 
Q 39.59375 6.203125 44.453125 7.46875 
Q 49.3125 8.734375 54.109375 11.28125 
L 54.109375 2.78125 
Q 49.265625 0.734375 44.1875 -0.34375 
Q 39.109375 -1.421875 33.890625 -1.421875 
Q 20.796875 -1.421875 13.15625 6.1875 
Q 5.515625 13.8125 5.515625 26.8125 
Q 5.515625 40.234375 12.765625 48.109375 
Q 20.015625 56 32.328125 56 
Q 43.359375 56 49.78125 48.890625 
Q 56.203125 41.796875 56.203125 29.59375 
M 47.21875 32.234375 
Q 47.125 39.59375 43.09375 43.984375 
Q 39.0625 48.390625 32.421875 48.390625 
Q 24.90625 48.390625 20.390625 44.140625 
Q 15.875 39.890625 15.1875 32.171875 
z
" id="BitstreamVeraSans-Roman-65"/>
      <path d="M 45.40625 46.390625 
L 45.40625 75.984375 
L 54.390625 75.984375 
L 54.390625 0 
L 45.40625 0 
L 45.40625 8.203125 
Q 42.578125 3.328125 38.25 0.953125 
Q 33.9375 -1.421875 27.875 -1.421875 
Q 17.96875 -1.421875 11.734375 6.484375 
Q 5.515625 14.40625 5.515625 27.296875 
Q 5.515625 40.1875 11.734375 48.09375 
Q 17.96875 56 27.875 56 
Q 33.9375 56 38.25 53.625 
Q 42.578125 51.265625 45.40625 46.390625 
M 14.796875 27.296875 
Q 14.796875 17.390625 18.875 11.75 
Q 22.953125 6.109375 30.078125 6.109375 
Q 37.203125 6.109375 41.296875 11.75 
Q 45.40625 17.390625 45.40625 27.296875 
Q 45.40625 37.203125 41.296875 42.84375 
Q 37.203125 48.484375 30.078125 48.484375 
Q 22.953125 48.484375 18.875 42.84375 
Q 14.796875 37.203125 14.796875 27.296875 
" id="BitstreamVeraSans-Roman-64"/>
      <path d="M 41.109375 46.296875 
Q 39.59375 47.171875 37.8125 47.578125 
Q 36.03125 48 33.890625 48 
Q 26.265625 48 22.1875 43.046875 
Q 18.109375 38.09375 18.109375 28.8125 
L 18.109375 0 
L 9.078125 0 
L 9.078125 54.6875 
L 18.109375 54.6875 
L 18.109375 46.1875 
Q 20.953125 51.171875 25.484375 53.578125 
Q 30.03125 56 36.53125 56 
Q 37.453125 56 38.578125 55.875 
Q 39.703125 55.765625 41.0625 55.515625 
z
" id="BitstreamVeraSans-Roman-72"/>
      <path d="M 48.78125 52.59375 
L 48.78125 44.1875 
Q 44.96875 46.296875 41.140625 47.34375 
Q 37.3125 48.390625 33.40625 48.390625 
Q 24.65625 48.390625 19.8125 42.84375 
Q 14.984375 37.3125 14.984375 27.296875 
Q 14.984375 17.28125 19.8125 11.734375 
Q 24.65625 6.203125 33.40625 6.203125 
Q 37.3125 6.203125 41.140625 7.25 
Q 44.96875 8.296875 48.78125 10.40625 
L 48.78125 2.09375 
Q 45.015625 0.34375 40.984375 -0.53125 
Q 36.96875 -1.421875 32.421875 -1.421875 
Q 20.0625 -1.421875 12.78125 6.34375 
Q 5.515625 14.109375 5.515625 27.296875 
Q 5.515625 40.671875 12.859375 48.328125 
Q 20.21875 56 33.015625 56 
Q 37.15625 56 41.109375 55.140625 
Q 45.0625 54.296875 48.78125 52.59375 
" id="BitstreamVeraSans-Roman-63"/>
      <path d="M 18.3125 70.21875 
L 18.3125 54.6875 
L 36.8125 54.6875 
L 36.8125 47.703125 
L 18.3125 47.703125 
L 18.3125 18.015625 
Q 18.3125 11.328125 20.140625 9.421875 
Q 21.96875 7.515625 27.59375 7.515625 
L 36.8125 7.515625 
L 36.8125 0 
L 27.59375 0 
Q 17.1875 0 13.234375 3.875 
Q 9.28125 7.765625 9.28125 18.015625 
L 9.28125 47.703125 
L 2.6875 47.703125 
L 2.6875 54.6875 
L 9.28125 54.6875 
L 9.28125 70.21875 
z
" id="BitstreamVeraSans-Roman-74"/>
      <path d="M 56.203125 29.59375 
L 56.203125 25.203125 
L 14.890625 25.203125 
Q 15.484375 15.921875 20.484375 11.0625 
Q 25.484375 6.203125 34.421875 6.203125 
Q 39.59375 6.203125 44.453125 7.46875 
Q 49.3125 8.734375 54.109375 11.28125 
L 54.109375 2.78125 
Q 49.265625 0.734375 44.1875 -0.34375 
Q 39.109375 -1.421875 33.890625 -1.421875 
Q 20.796875 -1.421875 13.15625 6.1875 
Q 5.515625 13.8125 5.515625 26.8125 
Q 5.515625 40.234375 12.765625 48.109375 
Q 20.015625 56 32.328125 56 
Q 43.359375 56 49.78125 48.890625 
Q 56.203125 41.796875 56.203125 29.59375 
M 47.21875 32.234375 
Q 47.125 39.59375 43.09375 43.984375 
Q 39.0625 48.390625 32.421875 48.390625 
Q 24.90625 48.390625 20.390625 44.140625 
Q 15.875 39.890625 15.1875 32.171875 
z
M 38.53125 79.984375 
L 48.25 79.984375 
L 32.34375 61.625 
L 24.859375 61.625 
z
" id="BitstreamVeraSans-Roman-e9"/>
      <path d="M 52 44.1875 
Q 55.375 50.25 60.0625 53.125 
Q 64.75 56 71.09375 56 
Q 79.640625 56 84.28125 50.015625 
Q 88.921875 44.046875 88.921875 33.015625 
L 88.921875 0 
L 79.890625 0 
L 79.890625 32.71875 
Q 79.890625 40.578125 77.09375 44.375 
Q 74.3125 48.1875 68.609375 48.1875 
Q 61.625 48.1875 57.5625 43.546875 
Q 53.515625 38.921875 53.515625 30.90625 
L 53.515625 0 
L 44.484375 0 
L 44.484375 32.71875 
Q 44.484375 40.625 41.703125 44.40625 
Q 38.921875 48.1875 33.109375 48.1875 
Q 26.21875 48.1875 22.15625 43.53125 
Q 18.109375 38.875 18.109375 30.90625 
L 18.109375 0 
L 9.078125 0 
L 9.078125 54.6875 
L 18.109375 54.6875 
L 18.109375 46.1875 
Q 21.1875 51.21875 25.484375 53.609375 
Q 29.78125 56 35.6875 56 
Q 41.65625 56 45.828125 52.96875 
Q 50 49.953125 52 44.1875 
" id="BitstreamVeraSans-Roman-6d"/>
      <path id="BitstreamVeraSans-Roman-20"/>
      <path d="M 28.609375 0 
L 0.78125 72.90625 
L 11.078125 72.90625 
L 34.1875 11.53125 
L 57.328125 72.90625 
L 67.578125 72.90625 
L 39.796875 0 
z
" id="BitstreamVeraSans-Roman-56"/>
      <path d="M 30.609375 48.390625 
Q 23.390625 48.390625 19.1875 42.75 
Q 14.984375 37.109375 14.984375 27.296875 
Q 14.984375 17.484375 19.15625 11.84375 
Q 23.34375 6.203125 30.609375 6.203125 
Q 37.796875 6.203125 41.984375 11.859375 
Q 46.1875 17.53125 46.1875 27.296875 
Q 46.1875 37.015625 41.984375 42.703125 
Q 37.796875 48.390625 30.609375 48.390625 
M 30.609375 56 
Q 42.328125 56 49.015625 48.375 
Q 55.71875 40.765625 55.71875 27.296875 
Q 55.71875 13.875 49.015625 6.21875 
Q 42.328125 -1.421875 30.609375 -1.421875 
Q 18.84375 -1.421875 12.171875 6.21875 
Q 5.515625 13.875 5.515625 27.296875 
Q 5.515625 40.765625 12.171875 48.375 
Q 18.84375 56 30.609375 56 
" id="BitstreamVeraSans-Roman-6f"/>
      <path d="M 9.8125 72.90625 
L 23.09375 72.90625 
L 55.421875 11.921875 
L 55.421875 72.90625 
L 64.984375 72.90625 
L 64.984375 0 
L 51.703125 0 
L 19.390625 60.984375 
L 19.390625 0 
L 9.8125 0 
z
" id="BitstreamVeraSans-Roman-4e"/>
      <path d="M 44.28125 53.078125 
L 44.28125 44.578125 
Q 40.484375 46.53125 36.375 47.5 
Q 32.28125 48.484375 27.875 48.484375 
Q 21.1875 48.484375 17.84375 46.4375 
Q 14.5 44.390625 14.5 40.28125 
Q 14.5 37.15625 16.890625 35.375 
Q 19.28125 33.59375 26.515625 31.984375 
L 29.59375 31.296875 
Q 39.15625 29.25 43.1875 25.515625 
Q 47.21875 21.78125 47.21875 15.09375 
Q 47.21875 7.46875 41.1875 3.015625 
Q 35.15625 -1.421875 24.609375 -1.421875 
Q 20.21875 -1.421875 15.453125 -0.5625 
Q 10.6875 0.296875 5.421875 2 
L 5.421875 11.28125 
Q 10.40625 8.6875 15.234375 7.390625 
Q 20.0625 6.109375 24.8125 6.109375 
Q 31.15625 6.109375 34.5625 8.28125 
Q 37.984375 10.453125 37.984375 14.40625 
Q 37.984375 18.0625 35.515625 20.015625 
Q 33.0625 21.96875 24.703125 23.78125 
L 21.578125 24.515625 
Q 13.234375 26.265625 9.515625 29.90625 
Q 5.8125 33.546875 5.8125 39.890625 
Q 5.8125 47.609375 11.28125 51.796875 
Q 16.75 56 26.8125 56 
Q 31.78125 56 36.171875 55.265625 
Q 40.578125 54.546875 44.28125 53.078125 
" id="BitstreamVeraSans-Roman-73"/>
      <path d="M 9.421875 54.6875 
L 18.40625 54.6875 
L 18.40625 0 
L 9.421875 0 
z
M 9.421875 75.984375 
L 18.40625 75.984375 
L 18.40625 64.59375 
L 9.421875 64.59375 
z
" id="BitstreamVeraSans-Roman-69"/>
     </defs>
     <g transform="translate(466.21125 560.371875)scale(0.12 -0.12)">
      <use xlink:href="#BitstreamVeraSans-Roman-4e"/>
      <use x="74.8046875" xlink:href="#BitstreamVeraSans-Roman-fa"/>
      <use x="138.18359375" xlink:href="#BitstreamVeraSans-Roman-6d"/>
      <use x="235.595703125" xlink:href="#BitstreamVeraSans-Roman-65"/>
      <use x="297.119140625" xlink:href="#BitstreamVeraSans-Roman-72"/>
      <use x="338.201171875" xlink:href="#BitstreamVeraSans-Roman-6f"/>
      <use x="399.3828125" xlink:href="#BitstreamVeraSans-Roman-20"/>
      <use x="431.169921875" xlink:href="#BitstreamVeraSans-Roman-64"/>
      <use x="494.646484375" xlink:href="#BitstreamVeraSans-Roman-65"/>
      <use x="556.169921875" xlink:href="#BitstreamVeraSans-Roman-20"/>
      <use x="587.95703125" xlink:href="#BitstreamVeraSans-Roman-56"/>
      <use x="656.255859375" xlink:href="#BitstreamVeraSans-Roman-e9"/>
      <use x="717.779296875" xlink:href="#BitstreamVeraSans-Roman-72"/>
      <use x="758.892578125" xlink:href="#BitstreamVeraSans-Roman-74"/>
      <use x="798.1015625" xlink:href="#BitstreamVeraSans-Roman-69"/>
      <use x="825.884765625" xlink:href="#BitstreamVeraSans-Roman-63"/>
      <use x="880.865234375" xlink:href="#BitstreamVeraSans-Roman-65"/>
      <use x="942.388671875" xlink:href="#BitstreamVeraSans-Roman-73"/>
     </g>
    </g>
   </g>
   <g id="matplotlib.axis_2">
    <g id="ytick_1">
     <g id="line2d_15">
      <defs>
       <path d="M 0 0 
L 4 0 
" id="mf7ecb807be" style="stroke:#000000;stroke-width:0.5;"/>
      </defs>
      <g>
       <use style="stroke:#000000;stroke-width:0.5;" x="56.7225" xlink:href="#mf7ecb807be" y="482.840932679"/>
      </g>
     </g>
     <g id="line2d_16">
      <defs>
       <path d="M 0 0 
L -4 0 
" id="mbef6b8ed78" style="stroke:#000000;stroke-width:0.5;"/>
      </defs>
      <g>
       <use style="stroke:#000000;stroke-width:0.5;" x="995.04" xlink:href="#mbef6b8ed78" y="482.840932679"/>
      </g>
     </g>
     <g id="text_9">
      <!-- 50 -->
      <g transform="translate(37.4525 486.152182679)scale(0.12 -0.12)">
       <use xlink:href="#BitstreamVeraSans-Roman-35"/>
       <use x="63.623046875" xlink:href="#BitstreamVeraSans-Roman-30"/>
      </g>
     </g>
    </g>
    <g id="ytick_2">
     <g id="line2d_17">
      <g>
       <use style="stroke:#000000;stroke-width:0.5;" x="56.7225" xlink:href="#mf7ecb807be" y="401.98236326"/>
      </g>
     </g>
     <g id="line2d_18">
      <g>
       <use style="stroke:#000000;stroke-width:0.5;" x="995.04" xlink:href="#mbef6b8ed78" y="401.98236326"/>
      </g>
     </g>
     <g id="text_10">
      <!-- 100 -->
      <defs>
       <path d="M 12.40625 8.296875 
L 28.515625 8.296875 
L 28.515625 63.921875 
L 10.984375 60.40625 
L 10.984375 69.390625 
L 28.421875 72.90625 
L 38.28125 72.90625 
L 38.28125 8.296875 
L 54.390625 8.296875 
L 54.390625 0 
L 12.40625 0 
z
" id="BitstreamVeraSans-Roman-31"/>
      </defs>
      <g transform="translate(29.8175 405.29361326)scale(0.12 -0.12)">
       <use xlink:href="#BitstreamVeraSans-Roman-31"/>
       <use x="63.623046875" xlink:href="#BitstreamVeraSans-Roman-30"/>
       <use x="127.24609375" xlink:href="#BitstreamVeraSans-Roman-30"/>
      </g>
     </g>
    </g>
    <g id="ytick_3">
     <g id="line2d_19">
      <g>
       <use style="stroke:#000000;stroke-width:0.5;" x="56.7225" xlink:href="#mf7ecb807be" y="321.12379384"/>
      </g>
     </g>
     <g id="line2d_20">
      <g>
       <use style="stroke:#000000;stroke-width:0.5;" x="995.04" xlink:href="#mbef6b8ed78" y="321.12379384"/>
      </g>
     </g>
     <g id="text_11">
      <!-- 150 -->
      <g transform="translate(29.8175 324.43504384)scale(0.12 -0.12)">
       <use xlink:href="#BitstreamVeraSans-Roman-31"/>
       <use x="63.623046875" xlink:href="#BitstreamVeraSans-Roman-35"/>
       <use x="127.24609375" xlink:href="#BitstreamVeraSans-Roman-30"/>
      </g>
     </g>
    </g>
    <g id="ytick_4">
     <g id="line2d_21">
      <g>
       <use style="stroke:#000000;stroke-width:0.5;" x="56.7225" xlink:href="#mf7ecb807be" y="240.265224421"/>
      </g>
     </g>
     <g id="line2d_22">
      <g>
       <use style="stroke:#000000;stroke-width:0.5;" x="995.04" xlink:href="#mbef6b8ed78" y="240.265224421"/>
      </g>
     </g>
     <g id="text_12">
      <!-- 200 -->
      <g transform="translate(29.8175 243.576474421)scale(0.12 -0.12)">
       <use xlink:href="#BitstreamVeraSans-Roman-32"/>
       <use x="63.623046875" xlink:href="#BitstreamVeraSans-Roman-30"/>
       <use x="127.24609375" xlink:href="#BitstreamVeraSans-Roman-30"/>
      </g>
     </g>
    </g>
    <g id="ytick_5">
     <g id="line2d_23">
      <g>
       <use style="stroke:#000000;stroke-width:0.5;" x="56.7225" xlink:href="#mf7ecb807be" y="159.406655002"/>
      </g>
     </g>
     <g id="line2d_24">
      <g>
       <use style="stroke:#000000;stroke-width:0.5;" x="995.04" xlink:href="#mbef6b8ed78" y="159.406655002"/>
      </g>
     </g>
     <g id="text_13">
      <!-- 250 -->
      <g transform="translate(29.8175 162.717905002)scale(0.12 -0.12)">
       <use xlink:href="#BitstreamVeraSans-Roman-32"/>
       <use x="63.623046875" xlink:href="#BitstreamVeraSans-Roman-35"/>
       <use x="127.24609375" xlink:href="#BitstreamVeraSans-Roman-30"/>
      </g>
     </g>
    </g>
    <g id="ytick_6">
     <g id="line2d_25">
      <g>
       <use style="stroke:#000000;stroke-width:0.5;" x="56.7225" xlink:href="#mf7ecb807be" y="78.5480855826"/>
      </g>
     </g>
     <g id="line2d_26">
      <g>
       <use style="stroke:#000000;stroke-width:0.5;" x="995.04" xlink:href="#mbef6b8ed78" y="78.5480855826"/>
      </g>
     </g>
     <g id="text_14">
      <!-- 300 -->
      <g transform="translate(29.8175 81.8593355826)scale(0.12 -0.12)">
       <use xlink:href="#BitstreamVeraSans-Roman-33"/>
       <use x="63.623046875" xlink:href="#BitstreamVeraSans-Roman-30"/>
       <use x="127.24609375" xlink:href="#BitstreamVeraSans-Roman-30"/>
      </g>
     </g>
    </g>
    <g id="text_15">
     <!-- Nmero Mdio de Ciclos -->
     <defs>
      <path d="M 64.40625 67.28125 
L 64.40625 56.890625 
Q 59.421875 61.53125 53.78125 63.8125 
Q 48.140625 66.109375 41.796875 66.109375 
Q 29.296875 66.109375 22.65625 58.46875 
Q 16.015625 50.828125 16.015625 36.375 
Q 16.015625 21.96875 22.65625 14.328125 
Q 29.296875 6.6875 41.796875 6.6875 
Q 48.140625 6.6875 53.78125 8.984375 
Q 59.421875 11.28125 64.40625 15.921875 
L 64.40625 5.609375 
Q 59.234375 2.09375 53.4375 0.328125 
Q 47.65625 -1.421875 41.21875 -1.421875 
Q 24.65625 -1.421875 15.125 8.703125 
Q 5.609375 18.84375 5.609375 36.375 
Q 5.609375 53.953125 15.125 64.078125 
Q 24.65625 74.21875 41.21875 74.21875 
Q 47.75 74.21875 53.53125 72.484375 
Q 59.328125 70.75 64.40625 67.28125 
" id="BitstreamVeraSans-Roman-43"/>
      <path d="M 9.8125 72.90625 
L 24.515625 72.90625 
L 43.109375 23.296875 
L 61.8125 72.90625 
L 76.515625 72.90625 
L 76.515625 0 
L 66.890625 0 
L 66.890625 64.015625 
L 48.09375 14.015625 
L 38.1875 14.015625 
L 19.390625 64.015625 
L 19.390625 0 
L 9.8125 0 
z
" id="BitstreamVeraSans-Roman-4d"/>
      <path d="M 9.421875 75.984375 
L 18.40625 75.984375 
L 18.40625 0 
L 9.421875 0 
z
" id="BitstreamVeraSans-Roman-6c"/>
     </defs>
     <g transform="translate(22.321875 344.6203125)rotate(-90.0)scale(0.12 -0.12)">
      <use xlink:href="#BitstreamVeraSans-Roman-4e"/>
      <use x="74.8046875" xlink:href="#BitstreamVeraSans-Roman-fa"/>
      <use x="138.18359375" xlink:href="#BitstreamVeraSans-Roman-6d"/>
      <use x="235.595703125" xlink:href="#BitstreamVeraSans-Roman-65"/>
      <use x="297.119140625" xlink:href="#BitstreamVeraSans-Roman-72"/>
      <use x="338.201171875" xlink:href="#BitstreamVeraSans-Roman-6f"/>
      <use x="399.3828125" xlink:href="#BitstreamVeraSans-Roman-20"/>
      <use x="431.169921875" xlink:href="#BitstreamVeraSans-Roman-4d"/>
      <use x="517.44921875" xlink:href="#BitstreamVeraSans-Roman-e9"/>
      <use x="578.97265625" xlink:href="#BitstreamVeraSans-Roman-64"/>
      <use x="642.44921875" xlink:href="#BitstreamVeraSans-Roman-69"/>
      <use x="670.232421875" xlink:href="#BitstreamVeraSans-Roman-6f"/>
      <use x="731.4140625" xlink:href="#BitstreamVeraSans-Roman-20"/>
      <use x="763.201171875" xlink:href="#BitstreamVeraSans-Roman-64"/>
      <use x="826.677734375" xlink:href="#BitstreamVeraSans-Roman-65"/>
      <use x="888.201171875" xlink:href="#BitstreamVeraSans-Roman-20"/>
      <use x="919.98828125" xlink:href="#BitstreamVeraSans-Roman-43"/>
      <use x="989.8125" xlink:href="#BitstreamVeraSans-Roman-69"/>
      <use x="1017.595703125" xlink:href="#BitstreamVeraSans-Roman-63"/>
      <use x="1072.576171875" xlink:href="#BitstreamVeraSans-Roman-6c"/>
      <use x="1100.359375" xlink:href="#BitstreamVeraSans-Roman-6f"/>
      <use x="1161.541015625" xlink:href="#BitstreamVeraSans-Roman-73"/>
     </g>
    </g>
   </g>
   <g id="legend_1">
    <g id="patch_7">
     <path d="M 63.9225 87.8895 
L 221.7015 87.8895 
L 221.7015 20.16 
L 63.9225 20.16 
z
" style="fill:#ffffff;stroke:#000000;stroke-linejoin:miter;"/>
    </g>
    <g id="PathCollection_4">
     <path d="M 74.0025 52.845985 
C 79.244036 52.845985 84.271599 50.763501 87.977925 47.057175 
C 91.684251 43.350849 93.766735 38.323286 93.766735 33.08175 
C 93.766735 27.840214 91.684251 22.812651 87.977925 19.106325 
C 84.271599 15.399999 79.244036 13.317515 74.0025 13.317515 
C 68.760964 13.317515 63.733401 15.399999 60.027075 19.106325 
C 56.320749 22.812651 54.238265 27.840214 54.238265 33.08175 
C 54.238265 38.323286 56.320749 43.350849 60.027075 47.057175 
C 63.733401 50.763501 68.760964 52.845985 74.0025 52.845985 
z
" style="fill:#0000ff;fill-opacity:0.4;stroke:#0000ff;stroke-opacity:0.4;"/>
     <path d="M 84.0825 56.82175 
C 90.712578 56.82175 97.071997 54.187592 101.76017 49.49942 
C 106.448342 44.811247 109.0825 38.451828 109.0825 31.82175 
C 109.0825 25.191673 106.448342 18.832253 101.76017 14.14408 
C 97.071997 9.455908 90.712578 6.82175 84.0825 6.82175 
C 77.452423 6.82175 71.093003 9.455908 66.40483 14.14408 
C 61.716658 18.832253 59.0825 25.191673 59.0825 31.82175 
C 59.0825 38.451828 61.716658 44.811247 66.40483 49.49942 
C 71.093003 54.187592 77.452423 56.82175 84.0825 56.82175 
z
" style="fill:#0000ff;fill-opacity:0.4;stroke:#0000ff;stroke-opacity:0.4;"/>
     <path d="M 94.1625 46.21175 
C 97.477539 46.21175 100.657248 44.894671 103.001335 42.550585 
C 105.345421 40.206498 106.6625 37.026789 106.6625 33.71175 
C 106.6625 30.396711 105.345421 27.217002 103.001335 24.872915 
C 100.657248 22.528829 97.477539 21.21175 94.1625 21.21175 
C 90.847461 21.21175 87.667752 22.528829 85.323665 24.872915 
C 82.979579 27.217002 81.6625 30.396711 81.6625 33.71175 
C 81.6625 37.026789 82.979579 40.206498 85.323665 42.550585 
C 87.667752 44.894671 90.847461 46.21175 94.1625 46.21175 
z
" style="fill:#0000ff;fill-opacity:0.4;stroke:#0000ff;stroke-opacity:0.4;"/>
    </g>
    <g id="text_16">
     <!-- Busca Tabu v1 -->
     <defs>
      <path d="M 19.671875 34.8125 
L 19.671875 8.109375 
L 35.5 8.109375 
Q 43.453125 8.109375 47.28125 11.40625 
Q 51.125 14.703125 51.125 21.484375 
Q 51.125 28.328125 47.28125 31.5625 
Q 43.453125 34.8125 35.5 34.8125 
z
M 19.671875 64.796875 
L 19.671875 42.828125 
L 34.28125 42.828125 
Q 41.5 42.828125 45.03125 45.53125 
Q 48.578125 48.25 48.578125 53.8125 
Q 48.578125 59.328125 45.03125 62.0625 
Q 41.5 64.796875 34.28125 64.796875 
z
M 9.8125 72.90625 
L 35.015625 72.90625 
Q 46.296875 72.90625 52.390625 68.21875 
Q 58.5 63.53125 58.5 54.890625 
Q 58.5 48.1875 55.375 44.234375 
Q 52.25 40.28125 46.1875 39.3125 
Q 53.46875 37.75 57.5 32.78125 
Q 61.53125 27.828125 61.53125 20.40625 
Q 61.53125 10.640625 54.890625 5.3125 
Q 48.25 0 35.984375 0 
L 9.8125 0 
z
" id="BitstreamVeraSans-Roman-42"/>
      <path d="M 2.984375 54.6875 
L 12.5 54.6875 
L 29.59375 8.796875 
L 46.6875 54.6875 
L 56.203125 54.6875 
L 35.6875 0 
L 23.484375 0 
z
" id="BitstreamVeraSans-Roman-76"/>
      <path d="M 8.5 21.578125 
L 8.5 54.6875 
L 17.484375 54.6875 
L 17.484375 21.921875 
Q 17.484375 14.15625 20.5 10.265625 
Q 23.53125 6.390625 29.59375 6.390625 
Q 36.859375 6.390625 41.078125 11.03125 
Q 45.3125 15.671875 45.3125 23.6875 
L 45.3125 54.6875 
L 54.296875 54.6875 
L 54.296875 0 
L 45.3125 0 
L 45.3125 8.40625 
Q 42.046875 3.421875 37.71875 1 
Q 33.40625 -1.421875 27.6875 -1.421875 
Q 18.265625 -1.421875 13.375 4.4375 
Q 8.5 10.296875 8.5 21.578125 
" id="BitstreamVeraSans-Roman-75"/>
      <path d="M -0.296875 72.90625 
L 61.375 72.90625 
L 61.375 64.59375 
L 35.5 64.59375 
L 35.5 0 
L 25.59375 0 
L 25.59375 64.59375 
L -0.296875 64.59375 
z
" id="BitstreamVeraSans-Roman-54"/>
      <path d="M 34.28125 27.484375 
Q 23.390625 27.484375 19.1875 25 
Q 14.984375 22.515625 14.984375 16.5 
Q 14.984375 11.71875 18.140625 8.90625 
Q 21.296875 6.109375 26.703125 6.109375 
Q 34.1875 6.109375 38.703125 11.40625 
Q 43.21875 16.703125 43.21875 25.484375 
L 43.21875 27.484375 
z
M 52.203125 31.203125 
L 52.203125 0 
L 43.21875 0 
L 43.21875 8.296875 
Q 40.140625 3.328125 35.546875 0.953125 
Q 30.953125 -1.421875 24.3125 -1.421875 
Q 15.921875 -1.421875 10.953125 3.296875 
Q 6 8.015625 6 15.921875 
Q 6 25.140625 12.171875 29.828125 
Q 18.359375 34.515625 30.609375 34.515625 
L 43.21875 34.515625 
L 43.21875 35.40625 
Q 43.21875 41.609375 39.140625 45 
Q 35.0625 48.390625 27.6875 48.390625 
Q 23 48.390625 18.546875 47.265625 
Q 14.109375 46.140625 10.015625 43.890625 
L 10.015625 52.203125 
Q 14.9375 54.109375 19.578125 55.046875 
Q 24.21875 56 28.609375 56 
Q 40.484375 56 46.34375 49.84375 
Q 52.203125 43.703125 52.203125 31.203125 
" id="BitstreamVeraSans-Roman-61"/>
      <path d="M 48.6875 27.296875 
Q 48.6875 37.203125 44.609375 42.84375 
Q 40.53125 48.484375 33.40625 48.484375 
Q 26.265625 48.484375 22.1875 42.84375 
Q 18.109375 37.203125 18.109375 27.296875 
Q 18.109375 17.390625 22.1875 11.75 
Q 26.265625 6.109375 33.40625 6.109375 
Q 40.53125 6.109375 44.609375 11.75 
Q 48.6875 17.390625 48.6875 27.296875 
M 18.109375 46.390625 
Q 20.953125 51.265625 25.265625 53.625 
Q 29.59375 56 35.59375 56 
Q 45.5625 56 51.78125 48.09375 
Q 58.015625 40.1875 58.015625 27.296875 
Q 58.015625 14.40625 51.78125 6.484375 
Q 45.5625 -1.421875 35.59375 -1.421875 
Q 29.59375 -1.421875 25.265625 0.953125 
Q 20.953125 3.328125 18.109375 8.203125 
L 18.109375 0 
L 9.078125 0 
L 9.078125 75.984375 
L 18.109375 75.984375 
z
" id="BitstreamVeraSans-Roman-62"/>
     </defs>
     <g transform="translate(110.0025 36.86175)scale(0.144 -0.144)">
      <use xlink:href="#BitstreamVeraSans-Roman-42"/>
      <use x="68.603515625" xlink:href="#BitstreamVeraSans-Roman-75"/>
      <use x="131.982421875" xlink:href="#BitstreamVeraSans-Roman-73"/>
      <use x="184.08203125" xlink:href="#BitstreamVeraSans-Roman-63"/>
      <use x="239.0625" xlink:href="#BitstreamVeraSans-Roman-61"/>
      <use x="300.341796875" xlink:href="#BitstreamVeraSans-Roman-20"/>
      <use x="332.12890625" xlink:href="#BitstreamVeraSans-Roman-54"/>
      <use x="392.962890625" xlink:href="#BitstreamVeraSans-Roman-61"/>
      <use x="454.2421875" xlink:href="#BitstreamVeraSans-Roman-62"/>
      <use x="517.71875" xlink:href="#BitstreamVeraSans-Roman-75"/>
      <use x="581.09765625" xlink:href="#BitstreamVeraSans-Roman-20"/>
      <use x="612.884765625" xlink:href="#BitstreamVeraSans-Roman-76"/>
      <use x="672.064453125" xlink:href="#BitstreamVeraSans-Roman-31"/>
     </g>
    </g>
    <g id="PathCollection_5">
     <path d="M 74.0025 72.140731 
C 78.755597 72.140731 83.31466 70.252305 86.675608 66.891358 
C 90.036555 63.53041 91.924981 58.971347 91.924981 54.21825 
C 91.924981 49.465153 90.036555 44.90609 86.675608 41.545142 
C 83.31466 38.184195 78.755597 36.295769 74.0025 36.295769 
C 69.249403 36.295769 64.69034 38.184195 61.329392 41.545142 
C 57.968445 44.90609 56.080019 49.465153 56.080019 54.21825 
C 56.080019 58.971347 57.968445 63.53041 61.329392 66.891358 
C 64.69034 70.252305 69.249403 72.140731 74.0025 72.140731 
z
" style="fill:#008000;fill-opacity:0.4;stroke:#008000;stroke-opacity:0.4;"/>
     <path d="M 84.0825 77.95825 
C 90.712578 77.95825 97.071997 75.324092 101.76017 70.63592 
C 106.448342 65.947747 109.0825 59.588328 109.0825 52.95825 
C 109.0825 46.328173 106.448342 39.968753 101.76017 35.28058 
C 97.071997 30.592408 90.712578 27.95825 84.0825 27.95825 
C 77.452423 27.95825 71.093003 30.592408 66.40483 35.28058 
C 61.716658 39.968753 59.0825 46.328173 59.0825 52.95825 
C 59.0825 59.588328 61.716658 65.947747 66.40483 70.63592 
C 71.093003 75.324092 77.452423 77.95825 84.0825 77.95825 
z
" style="fill:#008000;fill-opacity:0.4;stroke:#008000;stroke-opacity:0.4;"/>
     <path d="M 94.1625 59.02325 
C 95.269723 59.02325 96.331746 58.583346 97.114671 57.800421 
C 97.897596 57.017496 98.3375 55.955473 98.3375 54.84825 
C 98.3375 53.741027 97.897596 52.679004 97.114671 51.896079 
C 96.331746 51.113154 95.269723 50.67325 94.1625 50.67325 
C 93.055277 50.67325 91.993254 51.113154 91.210329 51.896079 
C 90.427404 52.679004 89.9875 53.741027 89.9875 54.84825 
C 89.9875 55.955473 90.427404 57.017496 91.210329 57.800421 
C 91.993254 58.583346 93.055277 59.02325 94.1625 59.02325 
z
" style="fill:#008000;fill-opacity:0.4;stroke:#008000;stroke-opacity:0.4;"/>
    </g>
    <g id="text_17">
     <!-- Busca Tabu v2 -->
     <g transform="translate(110.0025 57.99825)scale(0.144 -0.144)">
      <use xlink:href="#BitstreamVeraSans-Roman-42"/>
      <use x="68.603515625" xlink:href="#BitstreamVeraSans-Roman-75"/>
      <use x="131.982421875" xlink:href="#BitstreamVeraSans-Roman-73"/>
      <use x="184.08203125" xlink:href="#BitstreamVeraSans-Roman-63"/>
      <use x="239.0625" xlink:href="#BitstreamVeraSans-Roman-61"/>
      <use x="300.341796875" xlink:href="#BitstreamVeraSans-Roman-20"/>
      <use x="332.12890625" xlink:href="#BitstreamVeraSans-Roman-54"/>
      <use x="392.962890625" xlink:href="#BitstreamVeraSans-Roman-61"/>
      <use x="454.2421875" xlink:href="#BitstreamVeraSans-Roman-62"/>
      <use x="517.71875" xlink:href="#BitstreamVeraSans-Roman-75"/>
      <use x="581.09765625" xlink:href="#BitstreamVeraSans-Roman-20"/>
      <use x="612.884765625" xlink:href="#BitstreamVeraSans-Roman-76"/>
      <use x="672.064453125" xlink:href="#BitstreamVeraSans-Roman-32"/>
     </g>
    </g>
    <g id="PathCollection_6">
     <path d="M 74.0025 93.20482 
C 78.736394 93.20482 83.277037 91.324024 86.624406 87.976656 
C 89.971774 84.629287 91.85257 80.088644 91.85257 75.35475 
C 91.85257 70.620856 89.971774 66.080213 86.624406 62.732844 
C 83.277037 59.385476 78.736394 57.50468 74.0025 57.50468 
C 69.268606 57.50468 64.727963 59.385476 61.380594 62.732844 
C 58.033226 66.080213 56.15243 70.620856 56.15243 75.35475 
C 56.15243 80.088644 58.033226 84.629287 61.380594 87.976656 
C 64.727963 91.324024 69.268606 93.20482 74.0025 93.20482 
z
" style="fill:#ff0000;fill-opacity:0.4;stroke:#ff0000;stroke-opacity:0.4;"/>
     <path d="M 84.0825 99.09475 
C 90.712578 99.09475 97.071997 96.460592 101.76017 91.77242 
C 106.448342 87.084247 109.0825 80.724828 109.0825 74.09475 
C 109.0825 67.464673 106.448342 61.105253 101.76017 56.41708 
C 97.071997 51.728908 90.712578 49.09475 84.0825 49.09475 
C 77.452423 49.09475 71.093003 51.728908 66.40483 56.41708 
C 61.716658 61.105253 59.0825 67.464673 59.0825 74.09475 
C 59.0825 80.724828 61.716658 87.084247 66.40483 91.77242 
C 71.093003 96.460592 77.452423 99.09475 84.0825 99.09475 
z
" style="fill:#ff0000;fill-opacity:0.4;stroke:#ff0000;stroke-opacity:0.4;"/>
     <path d="M 94.1625 79.48475 
C 95.090711 79.48475 95.98103 79.115968 96.637374 78.459624 
C 97.293718 77.80328 97.6625 76.912961 97.6625 75.98475 
C 97.6625 75.056539 97.293718 74.16622 96.637374 73.509876 
C 95.98103 72.853532 95.090711 72.48475 94.1625 72.48475 
C 93.234289 72.48475 92.34397 72.853532 91.687626 73.509876 
C 91.031282 74.16622 90.6625 75.056539 90.6625 75.98475 
C 90.6625 76.912961 91.031282 77.80328 91.687626 78.459624 
C 92.34397 79.115968 93.234289 79.48475 94.1625 79.48475 
z
" style="fill:#ff0000;fill-opacity:0.4;stroke:#ff0000;stroke-opacity:0.4;"/>
    </g>
    <g id="text_18">
     <!-- Busca Tabu v3 -->
     <g transform="translate(110.0025 79.13475)scale(0.144 -0.144)">
      <use xlink:href="#BitstreamVeraSans-Roman-42"/>
      <use x="68.603515625" xlink:href="#BitstreamVeraSans-Roman-75"/>
      <use x="131.982421875" xlink:href="#BitstreamVeraSans-Roman-73"/>
      <use x="184.08203125" xlink:href="#BitstreamVeraSans-Roman-63"/>
      <use x="239.0625" xlink:href="#BitstreamVeraSans-Roman-61"/>
      <use x="300.341796875" xlink:href="#BitstreamVeraSans-Roman-20"/>
      <use x="332.12890625" xlink:href="#BitstreamVeraSans-Roman-54"/>
      <use x="392.962890625" xlink:href="#BitstreamVeraSans-Roman-61"/>
      <use x="454.2421875" xlink:href="#BitstreamVeraSans-Roman-62"/>
      <use x="517.71875" xlink:href="#BitstreamVeraSans-Roman-75"/>
      <use x="581.09765625" xlink:href="#BitstreamVeraSans-Roman-20"/>
      <use x="612.884765625" xlink:href="#BitstreamVeraSans-Roman-76"/>
      <use x="672.064453125" xlink:href="#BitstreamVeraSans-Roman-33"/>
     </g>
    </g>
   </g>
  </g>
 </g>
 <defs>
  <clipPath id="p5069e5f47d">
   <rect height="517.68" width="938.3175" x="56.7225" y="12.96"/>
  </clipPath>
 </defs>
</svg>
